<?xml version="1.0" encoding="UTF-8"?>
<!DOCTYPE svg PUBLIC "-//W3C//DTD SVG 1.1//EN" "http://www.w3.org/Graphics/SVG/1.1/DTD/svg11.dtd">
<!-- Creator: CorelDRAW -->
<svg xmlns="http://www.w3.org/2000/svg" xml:space="preserve" width="116.526mm" height="116.149mm" version="1.1" style="shape-rendering:geometricPrecision; text-rendering:geometricPrecision; image-rendering:optimizeQuality; fill-rule:evenodd; clip-rule:evenodd"
viewBox="0 0 11638.32 11600.67"
 xmlns:xlink="http://www.w3.org/1999/xlink"
 xmlns:xodm="http://www.corel.com/coreldraw/odm/2003">
 <defs>
  <style type="text/css">
   <![CDATA[
    .fil15 {fill:#006C9C;fill-rule:nonzero}
    .fil14 {fill:#00A1E7;fill-rule:nonzero}
    .fil11 {fill:#020A0E;fill-rule:nonzero}
    .fil16 {fill:#026E9E;fill-rule:nonzero}
    .fil13 {fill:#03A2E8;fill-rule:nonzero}
    .fil49 {fill:#05A4E9;fill-rule:nonzero}
    .fil50 {fill:#0DA7EA;fill-rule:nonzero}
    .fil51 {fill:#13A9EB;fill-rule:nonzero}
    .fil48 {fill:#14A9EB;fill-rule:nonzero}
    .fil52 {fill:#17ABEB;fill-rule:nonzero}
    .fil5 {fill:#272E2E;fill-rule:nonzero}
    .fil3 {fill:#2A3174;fill-rule:nonzero}
    .fil1 {fill:#2B3273;fill-rule:nonzero}
    .fil53 {fill:#30328A;fill-rule:nonzero}
    .fil54 {fill:#30328B;fill-rule:nonzero}
    .fil22 {fill:#303670;fill-rule:nonzero}
    .fil19 {fill:#31376F;fill-rule:nonzero}
    .fil18 {fill:#313770;fill-rule:nonzero}
    .fil17 {fill:#32386F;fill-rule:nonzero}
    .fil24 {fill:#343588;fill-rule:nonzero}
    .fil28 {fill:#343687;fill-rule:nonzero}
    .fil27 {fill:#343688;fill-rule:nonzero}
    .fil26 {fill:#353687;fill-rule:nonzero}
    .fil25 {fill:#353787;fill-rule:nonzero}
    .fil20 {fill:#353B6E;fill-rule:nonzero}
    .fil21 {fill:#363B6D;fill-rule:nonzero}
    .fil33 {fill:#393A84;fill-rule:nonzero}
    .fil32 {fill:#3B3B83;fill-rule:nonzero}
    .fil31 {fill:#3B3C83;fill-rule:nonzero}
    .fil30 {fill:#3F3F80;fill-rule:nonzero}
    .fil29 {fill:#3F4080;fill-rule:nonzero}
    .fil55 {fill:#E62229;fill-rule:nonzero}
    .fil23 {fill:#E62329;fill-rule:nonzero}
    .fil40 {fill:#E8F6FC;fill-rule:nonzero}
    .fil41 {fill:#EBF8FD;fill-rule:nonzero}
    .fil39 {fill:#EEF8FD;fill-rule:nonzero}
    .fil34 {fill:#F1F9FD;fill-rule:nonzero}
    .fil37 {fill:#F2FAFD;fill-rule:nonzero}
    .fil35 {fill:#F3FAFD;fill-rule:nonzero}
    .fil36 {fill:#F4FAFD;fill-rule:nonzero}
    .fil2 {fill:#F6E805;fill-rule:nonzero}
    .fil38 {fill:#F6FBFD;fill-rule:nonzero}
    .fil10 {fill:#F9EA03;fill-rule:nonzero}
    .fil6 {fill:#F9EB03;fill-rule:nonzero}
    .fil9 {fill:#FAEB03;fill-rule:nonzero}
    .fil7 {fill:#FAEC03;fill-rule:nonzero}
    .fil4 {fill:#FAFAF8;fill-rule:nonzero}
    .fil8 {fill:#FBEC02;fill-rule:nonzero}
    .fil45 {fill:#FCEB02;fill-rule:nonzero}
    .fil47 {fill:#FDEB02;fill-rule:nonzero}
    .fil46 {fill:#FDEC02;fill-rule:nonzero}
    .fil0 {fill:#FDEE01;fill-rule:nonzero}
    .fil42 {fill:#FEED01;fill-rule:nonzero}
    .fil43 {fill:#FEEE01;fill-rule:nonzero}
    .fil44 {fill:#FFEF00;fill-rule:nonzero}
    .fil12 {fill:#FFEF01;fill-rule:nonzero}
   ]]>
  </style>
 </defs>
 <g id="Layer_x0020_1">
  <metadata id="CorelCorpID_0Corel-Layer"/>
  <g id="_2217180543600">
   <g>
    <path class="fil0" d="M11638.31 4935.05c-3.13,12.3 -8.72,20.13 -9,28.14 -3.71,105.95 -3.38,212.17 -10.65,317.86 -8.91,129.4 -23.97,258.38 -36.51,387.54 -9.4,96.84 -15.77,194.12 -29.27,290.39 -21.12,150.55 -45.01,300.78 -71.67,450.45 -26.61,149.36 -55.32,298.44 -88.13,446.54 -35.75,161.29 -71.53,322.96 -117.64,481.47 -64.92,223.2 -133.86,445.58 -211.31,664.71 -74.91,211.92 -158.03,421.3 -246.38,628.02 -80.79,189.03 -165.68,377.15 -262.66,558.22 -141.94,265 -287.76,528.72 -447.68,783.07 -171.35,272.52 -360.29,534.02 -543.11,799.25 -40.98,59.47 -87.77,115 -133.28,171.23 -9.26,11.44 -23.49,21.68 -37.45,26.07 -264.02,83.04 -527.25,168.86 -792.98,246.1 -190.81,55.47 -384.09,103.27 -577.98,146.91 -170.4,38.35 -342.88,67.79 -514.97,98.11 -137.63,24.27 -275.81,45.88 -414.25,65.01 -94.77,13.08 -190.39,20.33 -285.71,29.39 -135.38,12.88 -270.75,26.3 -406.32,36.93 -56.07,4.39 -112.67,2.21 -170.98,6.62 -278.13,3.59 -554.31,3.59 -834.9,3.59 -15.45,-3.14 -26.37,-8.47 -37.54,-9.06 -128.86,-6.82 -258.22,-8.05 -386.53,-20.38 -179.39,-17.23 -358.01,-42.46 -536.94,-64.51 -307.9,-37.95 -613.05,-91.61 -913.52,-169.13 -263.65,-68.01 -527.26,-136.49 -788.99,-211.44 -158.73,-45.44 -315.77,-98.61 -469.35,-159.05 -45.01,-17.71 -81.4,-68.03 -111.74,-110.53 -179.29,-251.15 -360.26,-501.34 -531.39,-758.02 -117.28,-175.9 -224.51,-359.06 -327.13,-544.02 -117.08,-211.02 -231.83,-424.04 -333.38,-642.77 -114.74,-247.12 -218.37,-499.73 -317.94,-753.44 -73.71,-187.81 -142.22,-378.68 -196.91,-572.72 -83.36,-295.8 -156.85,-594.57 -226.62,-893.92 -42.42,-182.03 -72.73,-367.06 -103.19,-551.62 -18.31,-110.91 -28.07,-223.36 -38.75,-335.39 -17.05,-178.56 -36.06,-357.11 -46.17,-536.12 -11.33,-200.72 -13.68,-401.96 -20.04,-602.97 -0.24,-7.78 -1.4,-15.52 -5.73,-25.24 -3.59,-27.35 -3.59,-52.75 -3.59,-82.39 3.13,-18.41 8.83,-32.55 8.97,-46.74 0.85,-86.19 3.89,-172.6 -0.87,-258.54 -2.88,-52.02 15.14,-92.5 43.75,-131.72 108.56,-148.85 215.15,-299.18 326.34,-446.03 79.06,-104.43 162.11,-206.08 247.35,-305.57 134.04,-156.46 269.52,-311.78 407.97,-464.33 115.23,-126.95 232.54,-252.35 354.55,-372.74 123.93,-122.31 252.04,-240.74 383.12,-355.38 257.48,-225.17 521.21,-443.13 804.12,-636.03 223,-152.05 443.55,-309.23 676.4,-444.87 285.16,-166.11 578.71,-318.88 874.76,-464.98 303.39,-149.72 616.28,-279.54 937.7,-386.77 242.3,-80.83 485.66,-158.54 730,-240.95 17.61,-3.3 33.73,-3.3 53.89,-3.3 100.78,31.47 197.74,62.3 294.23,94.57 149.42,49.96 300.27,96.28 447.32,152.5 225.89,86.37 451.4,174.54 672.74,271.79 216.59,95.16 431.69,195.32 640.33,306.63 242.15,129.19 481.79,264.73 712.92,412.53 259.73,166.08 511.3,345.37 761.34,525.96 131.13,94.7 253.46,202.06 375.99,308.07 132.68,114.79 262.61,232.9 390.67,352.84 122.08,114.34 244.71,228.67 358.97,350.62 148.33,158.31 294.1,319.67 431.05,487.8 192.43,236.28 376.3,479.55 562.55,720.82 47.77,61.87 90.74,127.45 139.03,192.28 3.12,252.04 3.12,503.13 3.12,758.63l0 0zm-8433.36 6137.77c711.83,191.38 1434.98,310.03 2172,342.51 655.24,28.88 1306.73,-7.19 1954.44,-108.88 613.67,-96.34 1213.12,-249.97 1802.67,-445.53 118.44,-39.28 204.66,-100.13 280.18,-199.78 744.13,-981.89 1309.66,-2054.11 1654.49,-3239.51 184.29,-633.54 300.47,-1279.43 355.01,-1936.93 33.22,-400.51 41.89,-801.48 32.89,-1203 -0.54,-23.71 -5.52,-51.26 -18.45,-70.18 -546.75,-801.23 -1186.82,-1518.02 -1937.26,-2134.38 -1081.96,-888.64 -2307.62,-1500.33 -3648.07,-1890.03 -19.41,-5.64 -43.37,-4.79 -62.98,0.79 -799.41,228.05 -1563.32,541.6 -2285.99,953.53 -1339.84,763.74 -2422.52,1803.91 -3295.27,3069.15 -11.52,16.7 -18.15,40.05 -18.71,60.54 -15.31,568.16 6.13,1134.47 80.93,1698.55 78.19,589.73 207.78,1167.45 393.16,1732.68 368.44,1123.41 935.24,2139.76 1659,3071.16 13.28,17.1 35.25,31.44 56.03,38.1 272.53,87.36 545.57,173.11 825.93,261.19z"/>
   </g>
   <g>
    <path class="fil1" d="M3201.22 11071.86c-276.63,-87.12 -549.68,-172.87 -822.2,-260.23 -20.78,-6.66 -42.75,-21 -56.03,-38.1 -723.76,-931.4 -1290.56,-1947.76 -1659,-3071.16 -185.38,-565.23 -314.96,-1142.95 -393.16,-1732.68 -74.8,-564.08 -96.24,-1130.39 -80.93,-1698.55 0.56,-20.48 7.19,-43.84 18.71,-60.54 872.75,-1265.24 1955.43,-2305.42 3295.27,-3069.15 722.68,-411.94 1486.58,-725.48 2285.99,-953.53 19.62,-5.58 43.58,-6.43 62.98,-0.79 1340.45,389.69 2566.11,1001.38 3648.07,1890.03 750.44,616.36 1390.51,1333.15 1937.26,2134.38 12.92,18.93 17.91,46.47 18.45,70.18 9,401.52 0.33,802.49 -32.89,1203 -54.53,657.5 -170.71,1303.38 -355.01,1936.93 -344.83,1185.4 -910.36,2257.62 -1654.49,3239.51 -75.52,99.65 -161.74,160.49 -280.18,199.78 -589.56,195.56 -1189,349.19 -1802.67,445.53 -647.71,101.69 -1299.2,137.76 -1954.44,108.88 -737.02,-32.48 -1460.17,-151.14 -2175.73,-343.47l0 0zm-302.46 -9334.96c-990.01,685.47 -1809.81,1538.87 -2492.03,2527.7 -11.55,16.74 -18.76,39.91 -19.31,60.32 -13.54,505.24 2.46,1009.18 62.15,1511.61 67.62,568.96 184.42,1127.19 355.16,1674.09 353.58,1132.6 915.06,2154.89 1641.63,3089.25 13.29,17.09 35.42,30.95 56.24,37.98 170.42,57.55 340.47,116.54 512.58,168.7 807.38,244.74 1632.28,388.16 2475.98,416.42 555.79,18.61 1109.15,-11.54 1659.97,-90.94 683.94,-98.61 1350.19,-267.16 2000.94,-498.22 19.16,-6.8 38.33,-21.44 50.97,-37.55 552.05,-703.64 1008.83,-1463.75 1351.33,-2290.92 357.74,-863.99 575.19,-1762.57 662.66,-2693.38 39.97,-425.22 51.92,-851.08 41.98,-1277.76 -0.55,-23.59 -6.68,-50.8 -19.7,-69.84 -588.95,-862.18 -1288.17,-1621.1 -2118.94,-2256.2 -984.73,-752.8 -2081.97,-1279.63 -3269.45,-1624.37 -19.35,-5.61 -43.35,-3.92 -63.06,1.73 -1032.81,295.8 -1998.19,736.13 -2889.1,1351.39z"/>
   </g>
   <g>
    <path class="fil2" d="M2901.46 1734.85c888.21,-613.2 1853.6,-1053.53 2886.41,-1349.33 19.72,-5.64 43.72,-7.34 63.06,-1.73 1187.48,344.74 2284.71,871.57 3269.45,1624.37 830.76,635.1 1529.99,1394.01 2118.94,2256.2 13.01,19.05 19.15,46.25 19.7,69.84 9.94,426.68 -2.01,852.54 -41.98,1277.76 -87.47,930.81 -304.92,1829.39 -662.66,2693.38 -342.5,827.17 -799.27,1587.28 -1351.33,2290.92 -12.63,16.11 -31.81,30.75 -50.97,37.55 -650.75,231.06 -1317,399.61 -2000.94,498.22 -550.82,79.4 -1104.18,109.55 -1659.97,90.94 -843.7,-28.26 -1668.6,-171.68 -2475.98,-416.42 -172.11,-52.17 -342.16,-111.15 -512.58,-168.7 -20.82,-7.03 -42.95,-20.89 -56.24,-37.98 -726.57,-934.36 -1288.05,-1956.65 -1641.63,-3089.25 -170.73,-546.9 -287.54,-1105.13 -355.16,-1674.09 -59.7,-502.43 -75.7,-1006.37 -62.15,-1511.61 0.55,-20.41 7.76,-43.58 19.31,-60.32 682.23,-988.83 1502.02,-1842.23 2494.73,-2529.75l0 0zm-76.92 115.79c-935.94,666.95 -1714.02,1487.52 -2365.02,2431.55 -10.62,15.39 -16.18,37.1 -16.81,56.11 -16.83,508.52 3.05,1015.46 63.7,1520.85 63.59,529.79 171.32,1050.19 325.97,1560.81 348.26,1149.84 912.5,2186.25 1647.94,3132.4 11.56,14.86 30.21,27.25 48.1,33.69 875.81,315.45 1777.11,511.24 2706.78,570.27 654.69,41.57 1306.83,11.93 1955.58,-84.82 655.2,-97.71 1294.13,-261.39 1918.4,-482.38 24.58,-8.7 49.68,-27.33 65.28,-48.24 131.18,-175.78 264.93,-349.94 389.12,-530.62 898.66,-1307.37 1432.51,-2749.69 1593.6,-4328.83 45.41,-445.18 57.63,-891.6 46.81,-1338.74 -0.53,-21.84 -7.68,-46.74 -19.92,-64.63 -561.43,-820.97 -1224.16,-1548.05 -2007.75,-2162.9 -996.11,-781.63 -2113.16,-1323.67 -3324.96,-1677.68 -18.22,-5.32 -40.77,-4.36 -59.21,0.92 -1065.27,305.5 -2057.74,764.38 -2967.63,1412.24z"/>
   </g>
   <g>
    <path class="fil3" d="M2827.2 1848.54c907.23,-645.76 1899.71,-1104.65 2964.97,-1410.14 18.44,-5.28 40.99,-6.24 59.21,-0.92 1211.8,354.01 2328.85,896.04 3324.96,1677.68 783.59,614.86 1446.32,1341.94 2007.75,2162.9 12.24,17.89 19.39,42.79 19.92,64.63 10.82,447.14 -1.4,893.57 -46.81,1338.74 -161.09,1579.15 -694.94,3021.46 -1593.6,4328.83 -124.2,180.68 -257.94,354.84 -389.12,530.62 -15.6,20.91 -40.7,39.54 -65.28,48.24 -624.28,220.99 -1263.2,384.67 -1918.4,482.38 -648.75,96.74 -1300.89,126.39 -1955.58,84.82 -929.67,-59.03 -1830.97,-254.82 -2706.78,-570.27 -17.89,-6.44 -36.55,-18.83 -48.1,-33.69 -735.44,-946.14 -1299.68,-1982.55 -1647.94,-3132.4 -154.65,-510.62 -262.38,-1031.02 -325.97,-1560.81 -60.66,-505.39 -80.53,-1012.33 -63.7,-1520.85 0.63,-19.01 6.19,-40.72 16.81,-56.11 650.99,-944.03 1429.07,-1764.6 2367.67,-2433.65l0 0zm342.17 7175.53c5.38,3 11.35,5.29 16.08,9.1 222.51,179.12 461.18,333.66 716.1,461.98 288.63,145.28 590.25,255.98 904.75,332.26 252.27,61.2 507.8,103.8 766.36,114.54 252.83,10.5 506.22,8.52 758.93,-23.38 256.18,-32.33 507.98,-82.46 754.18,-158.8 459.74,-142.54 884.42,-355.07 1268.8,-646.18 39.29,-29.76 78.99,-58.99 122.38,-91.36 24.82,76.13 47.76,146.49 74.3,227.88 341.32,-299.72 615.99,-638.95 839.69,-1038.73 -39.35,3.12 -62.35,4.66 -85.32,6.79 -82.21,7.62 -164.4,15.42 -244.44,17.03 394.15,-574.07 620.79,-1208.21 674.07,-1902.31 45.41,-591.77 -40.12,-1165.41 -260.08,-1717.35 -689.7,-1730.59 -2510.38,-2751.34 -4383.1,-2399.87 -944.18,177.2 -1729.71,639.78 -2328.82,1390.88 -781.82,980.17 -1028.43,2093.46 -760.81,3317.88 104.48,478 309.03,914.11 576.34,1317.63 -105.31,-10.18 -210.62,-20.37 -326.05,-31.53 117.4,209.84 243.72,395.09 386.99,569.08 133.39,162.01 274.95,315.87 439.33,455.27 8.51,-5.6 22.26,-9.51 24.73,-17.08 20.91,-64.33 39.79,-129.32 65.58,-193.74l0 0zm301.59 -7003.97c10.21,62.56 20.42,125.14 31.88,195.42 -11.82,-8.3 -17.15,-11.03 -21.19,-15.04 -57.77,-57.37 -116.05,-114.24 -172.56,-172.83 -17.84,-18.48 -35.95,-22.22 -51.88,-5 -9.55,10.33 -16.25,30.9 -13.02,44.15 16.25,66.73 36.17,132.56 54.82,198.7 23.13,81.96 46.3,163.9 69.92,247.51 15.4,-7.74 24.68,-14.5 35.02,-17.26 49.18,-13.08 56.57,-41.29 39.53,-86.89 -17.57,-47.01 -27.94,-96.71 -41.45,-145.23 53.1,37.17 96.74,79.57 143.15,118.69 14.05,11.85 35.79,14.6 54,21.52 4.42,-17.88 10.86,-35.56 12.62,-53.69 1.34,-13.61 -3.69,-27.77 -5.24,-41.75 -5.17,-46.44 -10.05,-92.92 -15.04,-139.38 3,-0.69 5.99,-1.38 8.98,-2.07 43.09,54.47 86.16,108.95 129.91,164.26 32.34,-17.13 59.44,-31.48 88.96,-47.12 -105.58,-131.44 -208.24,-259.25 -312.38,-388.91 -19.47,10.14 -35.58,18.55 -52.96,27.6 5.52,31.21 10.66,60.28 16.91,97.34l0 0zm3776.32 8302.46c77.51,47.3 154.24,95.93 233.06,140.94 19.41,11.09 45.57,10.33 79.35,17.19 -60.12,-173.09 -114.77,-330.44 -170.44,-490.72 -34.27,12.1 -64.46,22.77 -95.76,33.82 29.81,87.57 58.23,171.02 90.26,265.11 -101.27,-60.15 -192.09,-112.43 -281,-167.8 -30.51,-19 -55.97,-22.71 -85.87,1.87 53.91,154.86 107.67,309.25 162.74,467.4 35.25,-12.98 65.05,-23.97 95.46,-35.19 -30.97,-90.34 -60.09,-175.27 -93.3,-272.14 27.63,16.97 43.46,26.7 65.49,39.53l0 0zm-1142.76 25.93c-28.28,-50.07 -75.28,-70.97 -128.72,-73.56 -71.39,-3.47 -143.07,-0.86 -219.62,-0.86 6.27,175.57 12.13,339.36 18.13,507.38 38.28,-2.18 71.75,-4.09 105.71,-6.01 0,-68.86 0,-132.58 0,-212.95 28.32,16.95 52.78,24.75 66.9,41.36 38.44,45.24 71.07,95.41 109.24,140.94 10.88,12.97 32.27,21.67 49.77,23.49 26.91,2.8 54.61,-2.04 89.05,-4.06 -56.81,-74.95 -108.64,-143.29 -160.41,-211.59 86.79,-72.62 100.84,-111.21 69.96,-204.14l0 0zm-1734.65 -8512.99c17.59,80.49 35.17,160.98 52.93,242.28 35.31,-7.65 65.02,-14.1 96.84,-21 -18.04,-86.87 -34.91,-168.07 -51.78,-249.27 83.78,59.25 159.38,122.05 233.39,186.67 24.01,20.96 46.58,28.88 77.48,10.35 -34.41,-159.66 -68.82,-319.4 -103.38,-479.85 -35.92,7.97 -65.59,14.55 -97.16,21.55 17.93,85.8 34.63,165.75 52.03,249.03 -8.42,-3.44 -11.72,-3.98 -13.94,-5.81 -71.25,-58.87 -143.53,-116.56 -213.01,-177.45 -28.63,-25.11 -53.18,-25.84 -82.06,-6.35 15.77,75.29 31.16,148.76 48.67,229.87l0 0zm3243.69 374.53c113.5,-1.45 188.8,-131.37 107.52,-242 51.91,-25.45 77.94,-66.62 70.78,-125 -7.25,-59.1 -49.38,-89.65 -99.12,-108.48 -51.94,-19.67 -106.27,-32.99 -161.7,-49.74 -51.71,158.07 -101.52,310.35 -153.85,470.3 80.36,19.4 154.33,37.25 236.37,54.91l0 0zm-1544.37 -773.67c-10.65,155.44 -21.28,310.87 -32.21,470.43 40.37,0 72.41,0 105.94,0 4.78,-61.8 9.48,-122.37 15.23,-196.55 21.48,15.07 40.58,21.97 48.93,35.5 29.55,47.89 53.24,99.49 83.93,146.59 10.6,16.27 33.83,28.57 53.58,33.53 22.76,5.73 48.07,1.34 78.86,1.34 -42.46,-76.43 -82.13,-147.82 -120.58,-216.99 20.81,-17.58 39.41,-29.91 53.76,-46 58.23,-65.31 44.28,-173.03 -31.01,-211.15 -80.42,-40.73 -167.66,-40.5 -256.44,-16.69l0 0zm-737.09 -6.01c-100.82,38.78 -150.36,115.92 -153.49,220.21 -3.01,100.16 23.85,192.23 120.04,242.76 96.5,50.68 191.3,28.68 280.65,-24.32 10.37,-6.15 22.34,-21.45 21.9,-32.02 -2.92,-69.55 -9.04,-138.98 -14.3,-210.98 -58.39,4.47 -110.96,8.49 -168.53,12.88 2.84,31.25 5.41,59.64 8.07,88.88 23.99,0 42.25,0 59.85,0 24.05,84.37 -0.08,98.27 -78.49,96.51 -43.74,-0.98 -76.74,-24.77 -98.82,-62.36 -61.69,-105.03 -10.45,-241.92 97.17,-250.47 37.49,-2.98 76.64,15 117.19,23.89 4.04,-8.6 8.56,-22.19 16.19,-33.74 26.27,-39.73 6.37,-57.86 -30.1,-71.81 -56.87,-21.76 -113.23,-18.89 -177.31,0.57l0 0zm66.08 9332.63c29.16,5.28 58.17,13.77 87.52,15.26 98.48,5 207.77,-34.1 207.32,-179.39 -0.05,-14 3.11,-27.99 4.31,-42.02 7.6,-88.05 15.08,-176.11 22.91,-267.76 -37.93,-2.49 -70.13,-4.59 -105.62,-6.92 -9.2,107.4 -18.14,210.21 -26.78,313.05 -5.91,70.36 -40.97,99.51 -112.3,92.77 -59.55,-5.62 -84.41,-41.07 -78.35,-108.91 9.27,-103.93 17.54,-207.97 26.4,-313.91 -37,-3.74 -69.12,-6.96 -105.15,-10.6 -10.46,124.32 -23.37,243.86 -29.52,363.73 -3.62,70.51 38.61,116.11 109.27,144.69l0 0zm844.16 -65.51c77.7,69.52 165.3,56.27 251.7,25.22 65.13,-23.4 113.28,-72.39 107.44,-144.2 -9.83,-120.95 -31.05,-240.98 -48.08,-365.77 -38.35,5.49 -71.42,10.23 -104.78,14.99 15.66,114.89 32.01,223.2 44.62,331.94 6.59,56.85 -26.12,87.92 -91.09,94.74 -53.51,5.62 -88.94,-19.83 -97.22,-71.87 -7.62,-47.89 -13.16,-96.09 -20.07,-144.09 -8.79,-61.08 -18.02,-122.07 -27.44,-185.67 -38.53,6 -70.32,10.97 -104.19,16.24 12.5,85.83 21.66,168.31 37.29,249.54 11.31,58.79 31.18,115.92 51.82,178.93l0 0zm-2242.41 -8586.72c60.65,58.78 126.03,89.13 205.5,34.01 2,-1.39 3.25,-3.86 7.18,-8.66 -78.21,-55.33 -155.37,-111.26 -234.14,-164.81 -23.29,-15.83 -28.84,-29.76 -20.49,-57.57 20.96,-69.86 37.3,-141.1 56.94,-217.38 -18.93,6.47 -31.46,12.8 -44.66,14.93 -54.44,8.79 -76.33,42.94 -85.25,94.82 -9.11,52.96 -26.15,104.54 -43.17,170.01 -27.65,-70 -50.61,-128.17 -74.12,-187.72 -34.42,13.33 -63.12,24.47 -96.05,37.23 59.41,153.42 117.22,302.71 176.37,455.49 34.47,-13.24 64.33,-24.72 93.99,-36.13 -11.41,-65.48 -71.64,-120.55 -22.82,-191.65 24.61,17.58 49.85,35.62 80.71,57.41l0 0zm978.55 -240.51c-13.59,0.94 -27.19,1.89 -43.9,3.05 -6.29,-39.31 -12.07,-75.38 -18.22,-113.84 53.38,-10.39 101.7,-19.8 151.96,-29.58 -6.64,-31.97 -12.17,-58.6 -17.92,-86.32 -53.05,8.49 -100.47,16.09 -151.32,24.23 -5.52,-30.55 -10.34,-57.17 -15.56,-86.08 73.55,-13.69 143.41,-26.69 213.84,-39.8 -6.59,-33.39 -11.97,-60.62 -17.94,-90.9 -107.01,18.95 -210.42,37.26 -315.19,55.82 29.11,163.44 57,319.99 85.6,480.54 105.87,-18.61 207.94,-36.56 313.29,-55.07 -6.98,-33.93 -12.73,-61.92 -18.86,-91.72 -56.38,9.99 -107.08,18.97 -165.78,29.68l0 0zm3061.86 208.38c-22.49,-10.34 -44.98,-20.65 -69.67,-31.99 12.29,-27.86 23.49,-53.21 35.74,-80.95 68.26,29.75 133.03,57.98 199.51,86.95 13.87,-31.64 25.38,-57.89 37.57,-85.72 -100.39,-44.08 -195.5,-85.85 -293.51,-128.88 -67.91,151.31 -133.43,297.31 -200.12,445.89 99.1,43.62 193.95,85.36 290.64,127.9 13.6,-30.81 24.78,-56.11 37.42,-84.77 -66.51,-30.07 -129.88,-58.73 -194.59,-87.98 17.46,-37.9 32.94,-71.55 49.65,-107.83 48.69,20.79 94.06,40.16 142.61,60.89 12.55,-28.53 24.01,-54.55 35.84,-81.4 -24.79,-11.46 -44.58,-20.59 -71.08,-32.12l0 0zm-2237.99 -272.89c-11.68,-7.69 -32.21,-14.23 -33.41,-23.31 -4.15,-31.62 -1.61,-64.13 -1.61,-99.6 56.65,0 106.04,0 157.28,0 0,-29.62 0,-55.79 0,-84.74 -51.63,-2.54 -102.45,-5.02 -155.44,-7.63 1.52,-31.09 2.8,-56.99 4.22,-86.14 73.99,0 143.73,0 214.7,0 0,-32.17 0,-60.7 0,-91.65 -107.54,0 -211.43,0 -320.44,0 0,162.27 0,321.24 0,484.35 102.4,0 204.93,0 310.41,0 0,-28.94 0,-57.66 0,-91.2 -57.59,0 -112.15,0 -175.71,-0.08l0 0zm-1179.54 8741.96c9.06,2.42 18.04,5.17 27.18,7.2 78.62,17.46 78.16,17.51 93.35,96.09 2,10.42 9.62,25.25 17.93,27.97 30.02,9.8 61.45,15.3 96.66,23.43 -2.31,-22.72 -2.82,-36.64 -5.25,-50.2 -27.24,-152.13 -54.15,-304.33 -83.21,-456.11 -2.73,-14.25 -17.6,-33.7 -30,-36.46 -12.26,-2.73 -33.51,8.95 -42.3,20.68 -74.98,100.04 -148.01,201.52 -221.62,302.59 -26.34,36.15 -52.66,72.31 -79.68,109.46 100.56,37.64 102.44,38.94 153.65,-35.33 21.64,-31.36 43,-13.01 73.3,-9.33l0 0zm2082.47 -56.89c-12.08,68.48 -24.16,136.94 -37.17,210.71 42.77,-9.81 77.39,-17.75 117.42,-26.92 -15.07,-86.52 31.67,-114.57 108.32,-128.64 52.48,-9.65 85.26,-5.43 109.09,44.31 5.66,11.84 24.91,25.27 36.89,24.37 30.48,-2.28 60.4,-12.26 96.21,-20.44 -107.02,-145.93 -210.11,-287.14 -314.6,-427.31 -5.98,-8.03 -25.5,-13.17 -34.91,-9.62 -11.82,4.48 -26.08,18.13 -28.3,29.89 -18.58,98.27 -34.62,197.02 -52.96,303.65l0 0zm-2411.99 -111.2c32.11,5.79 64.08,15.55 96.34,16.61 82.13,2.69 136.63,-41.13 159.88,-123.33 18.51,-65.41 -2.64,-122.14 -74.19,-159.76 -69.22,-36.41 -144.38,-61.49 -219.71,-92.71 -30.69,87.66 -57.6,164.01 -84.16,240.5 -26.99,77.7 -53.62,155.55 -81.55,236.64 34.92,11.88 66.35,22.57 99.37,33.81 20.78,-58.36 39.49,-110.9 58.85,-165.25 14.28,4.42 26.01,8.06 45.16,13.49l0 0zm815.9 -155.66c-84.4,-6.32 -148.31,27 -169.15,88.17 -22.71,66.66 1.63,122.37 74.83,174.28 29.27,20.76 61.31,39.78 84.39,66.3 13.8,15.85 21.79,47.91 15.19,66.63 -4.8,13.6 -39.68,27.04 -57.76,23.45 -42.72,-8.46 -83.42,-27.13 -127.52,-42.57 -12.93,21.05 -28.37,46.19 -45.08,73.4 75.49,56.08 156.63,76.2 245.05,50.58 105.82,-30.67 135.36,-154.22 56.46,-231.56 -19.91,-19.52 -44.83,-33.87 -67.11,-51.04 -19.8,-15.25 -43.07,-28.2 -57.4,-47.61 -11.27,-15.27 -20.48,-43.34 -13.63,-57.5 6.82,-14.12 36.5,-27.47 53.15,-24.47 37.27,6.7 72.69,23.79 112.44,37.91 10.54,-18.92 24.74,-44.4 46.09,-82.71 -51.79,-15.35 -96.98,-28.74 -149.95,-43.27l0 0zm658.89 -9390c-5.2,29.94 -23.76,39.66 -53.03,39.74 -45.16,0.12 -90.31,3.58 -135.46,5.61 35.26,40.82 73.24,68.37 106.99,100.37 11.21,10.63 18.37,33.95 15.59,49.35 -8.6,47.65 -22.86,94.29 -37.04,149.63 48.91,-31.32 88.51,-59.45 130.96,-82.27 13.93,-7.49 38.62,-7.52 52.57,-0.07 41.73,22.3 80.57,49.99 131.59,82.66 -15.5,-58.78 -29.73,-103.29 -37.91,-148.89 -2.8,-15.66 4.51,-39.29 15.91,-50.19 34.42,-32.91 73.1,-61.34 110.12,-91.53 -0.86,-4.75 -1.72,-9.5 -2.58,-14.25 -38.44,0 -77,-1.86 -115.3,0.49 -43.13,2.64 -69.54,-10.6 -81.13,-56.06 -9.78,-38.4 -28.58,-74.51 -47.04,-120.85 -19.81,49.62 -35.69,89.44 -54.22,136.26l0 0zm-2574.38 1678.82c-40.44,12.99 -80.89,25.99 -125.62,40.36 3.05,22.94 7.09,53.32 11.38,85.49 57.66,7.81 106.62,-9.39 152.26,-38.65 67.08,-43 97.05,-108.72 78.7,-170.5 -19.56,-65.85 -78.67,-104.68 -160.14,-105.15 -28.18,-0.16 -57.79,5.07 -84.08,-2.04 -22.09,-5.97 -40.31,-26.29 -60.24,-40.25 16.52,-18.05 29.97,-42.12 50.39,-52.51 22.14,-11.26 50.77,-9.77 79.74,-14.34 -4.81,-28.97 -9.58,-57.59 -16.36,-98.41 -43.62,13.12 -84.85,20.43 -121.44,37.6 -73.48,34.49 -105.44,96.13 -91.01,162.07 14.83,67.75 72.08,107.45 155.6,108.48 34.4,0.43 69.34,-1.77 103.03,3.56 46.51,7.33 59.08,41.43 27.78,84.3l0 0zm5255.78 -145.46c40.87,-73.2 81.74,-146.4 124.36,-222.73 -31.54,-17.37 -59.72,-32.87 -90.38,-49.75 -39.93,71.03 -77.63,139.15 -116.42,206.63 -19.41,33.77 -37.81,68.8 -62.04,98.92 -27.91,34.71 -95.93,26.99 -103.81,-14.54 -10.22,-53.83 -51.43,-58.49 -84.81,-79.37 -35.06,71.17 -20.53,130.47 41.02,173.59 100.02,70.06 189.17,52.75 255.76,-50.08 11.87,-18.34 22.27,-37.61 36.33,-62.66l0 0zm-1459.6 -529.76c-14.23,61.83 -28.47,123.67 -43.33,188.25 35.86,8.2 65.73,15.02 100.34,22.92 37.23,-159.79 73.88,-317.04 114.02,-489.35 -32.79,8.54 -55.32,12.13 -75.99,20.36 -27.44,10.94 -52.4,33.32 -80.22,36.96 -71.19,9.31 -82.2,56.89 -85.8,117.5 33.56,-8.77 64.95,-16.97 100.92,-26.37 -10.89,46.13 -19.84,84.06 -29.93,129.73l0 0zm-391.09 -330.09c1.37,-11.99 2.75,-23.97 4.49,-39.33 -34.91,-4.23 -66.73,-8.09 -102.44,-12.42 -20.11,163.6 -39.63,322.44 -59.6,484.94 38.27,3.86 69.87,7.03 103.31,10.4 18.27,-150.36 35.6,-292.93 54.23,-443.58l0 0zm2019.49 943.91c41.4,-65.85 82.8,-131.69 126.27,-200.82 -29.56,-18.62 -56.66,-35.66 -87.52,-55.08 -88.01,139.83 -173.88,276.23 -260.83,414.36 32,19.84 58.3,36.12 87.57,54.25 44.37,-70.03 87.68,-138.44 134.52,-212.71z"/>
   </g>
   <path class="fil4" d="M2587.11 8241.86c-275.63,-403.32 -480.18,-839.43 -584.66,-1317.43 -267.62,-1224.42 -21.01,-2337.71 760.81,-3317.88 599.11,-751.1 1384.64,-1213.67 2328.82,-1390.88 1872.72,-351.47 3693.4,669.28 4383.1,2399.87 219.96,551.93 305.5,1125.58 260.08,1717.35 -53.27,694.1 -279.92,1328.24 -678.8,1906.34 -33.78,6.78 -62.81,9.54 -90.68,9.2 10.06,-15.99 19.04,-28.83 27.84,-41.79 594.75,-875.38 812.43,-1837.16 610.35,-2875.25 -239.52,-1230.47 -938.94,-2132.96 -2051.12,-2702.95 -803.18,-411.62 -1657.97,-509.87 -2540.45,-323.08 -878.81,186.01 -1608.7,629.3 -2176.84,1324.07 -644.76,788.5 -924.81,1697.59 -851.73,2714.12 27.83,387.14 118.95,759.69 263.94,1119.5 112.91,280.24 260.8,541.09 429.1,789.07 -32.62,-3.09 -61.2,-6.67 -89.76,-10.26z"/>
   <g>
    <path class="fil5" d="M2582.96 8241.96c32.72,3.49 61.29,7.07 97.7,8.97 8.39,-10.99 10.14,-20.39 9.29,-29.56 -13.74,-149.75 -27.93,-299.46 -41.75,-449.21 -3.48,-37.57 -6.05,-75.23 -9.04,-112.85 6.13,-2.2 12.26,-4.38 18.39,-6.57 130.03,293.52 293.98,565.13 507.2,814.34 23.05,-72.19 43.64,-136.65 64.75,-202.76 714.43,726.45 1578.81,1097.38 2593.73,1097.28 1014.24,-0.11 1878.32,-371.59 2592.33,-1096.99 22.15,69.4 42.66,133.64 63.16,197.87 4.53,1.51 9.07,3.01 13.6,4.5 91.31,-130.66 188.45,-257.71 272.27,-393.01 83.42,-134.64 153.46,-277.56 229.37,-416.86 8.93,30.19 7.72,57.54 5.26,84.76 -14.05,156.02 -28.69,311.99 -42.15,468.06 -1.17,13.55 4.86,27.73 7.54,41.61 29.03,-2.76 58.07,-5.51 90.76,-9.24 85.86,-8.69 168.05,-16.49 250.26,-24.11 22.96,-2.13 45.96,-3.68 85.32,-6.79 -223.71,399.78 -498.37,739.01 -839.69,1038.73 -26.54,-81.39 -49.48,-151.75 -74.3,-227.88 -43.39,32.37 -83.09,61.59 -122.38,91.36 -384.38,291.11 -809.06,503.64 -1268.8,646.18 -246.2,76.34 -498,126.47 -754.18,158.8 -252.71,31.9 -506.1,33.88 -758.93,23.38 -258.56,-10.74 -514.09,-53.34 -766.36,-114.54 -314.51,-76.29 -616.13,-186.98 -904.75,-332.26 -254.93,-128.32 -493.6,-282.86 -716.1,-461.98 -4.73,-3.81 -10.7,-6.1 -19.97,-12.25 -9.64,-7.7 -15.4,-12.25 -22.9,-19.53 -28.69,-25.18 -55.64,-47.61 -84.2,-73.19 -9.14,-8.17 -16.69,-13.2 -25.81,-20.97 35.5,-123.79 71.22,-245.27 110.44,-365.61 11.06,-33.95 6.72,-57.15 -16.31,-84.6 -171.02,-203.74 -313.98,-425.87 -429.53,-665.56 -5.73,-11.92 -12.8,-23.19 -19.26,-34.77 -2.43,0.78 -4.87,1.55 -7.3,2.32 15.58,171.98 31.16,343.96 47.27,521.85 -140.31,-14.05 -275.51,-27.6 -419.14,-41.99 11.93,22.56 17.89,34.98 24.84,46.83 132.93,226.5 286.56,438.14 465.22,630.5 89.31,96.15 186.9,184.61 282.96,278.95 2.85,13.37 3.47,24.35 4.09,35.34 -161.19,-135 -302.76,-288.87 -436.15,-450.88 -143.26,-174 -269.59,-359.24 -386.99,-569.08 115.43,11.17 220.74,21.35 330.22,31.43l0 0zm4221.44 1569.78c9.06,-2.49 18.06,-5.21 27.18,-7.43 636.38,-154.93 1204.79,-443.43 1706.21,-865.03 39.82,-33.48 48.2,-61.98 31.64,-111.16 -52.4,-155.63 -99.31,-313.12 -148.41,-469.86 -4.79,-15.31 -10.07,-30.47 -16.36,-49.43 -719.51,715.29 -1581.49,1077.79 -2585.9,1076.8 -1004,-1 -1865.3,-364.82 -2579.6,-1078.11 -59.1,190.55 -117.45,377.07 -173.75,564.23 -3.47,11.51 5.35,32.19 15.22,41.25 39.18,36.01 80.32,69.99 122.02,103.12 680.08,540.25 1456.41,833.74 2320.08,898.26 429.28,32.06 854.31,-4.28 1281.66,-102.63l0 0zm2395.32 -1332.04c48.6,-77.37 97.19,-154.73 151.97,-241.92 -149.26,15.25 -284.03,29.02 -424.84,43.42 16.43,-180.88 32.28,-355.15 48.98,-538.96 -8.89,12.26 -12.16,15.53 -14,19.47 -120.8,256.58 -272.99,492.95 -454.11,711.15 -10.88,13.09 -12.29,41.26 -7.13,59.25 28.95,100.74 58.93,201.32 93.46,300.25 16.74,47.98 17.21,93.44 9.25,142.23 -11.12,68.21 -17.69,137.14 -26.92,211.47 107.8,-63.68 426.34,-426.42 623.35,-706.35l0 0zm-677.63 596.57c7.88,24.71 15.76,49.42 23.64,74.13 3.45,-0.21 6.89,-0.42 10.33,-0.63 8.97,-68.11 17.94,-136.22 27.42,-208.14 -83.4,42.39 -87.86,51.98 -61.38,134.64z"/>
   </g>
   <path class="fil6" d="M3470.4 2016.1c-5.69,-33.07 -10.83,-62.13 -16.35,-93.35 17.38,-9.05 33.49,-17.46 52.96,-27.6 104.14,129.66 206.8,257.47 312.38,388.91 -29.52,15.64 -56.62,29.99 -88.96,47.12 -43.75,-55.31 -86.82,-109.79 -129.91,-164.26 -2.99,0.69 -5.98,1.38 -8.98,2.07 4.99,46.46 9.87,92.94 15.04,139.38 1.56,13.98 6.58,28.14 5.24,41.75 -1.77,18.14 -8.2,35.82 -12.62,53.69 -18.22,-6.92 -39.95,-9.68 -54,-21.52 -46.41,-39.12 -90.06,-81.52 -143.15,-118.69 13.51,48.52 23.88,98.22 41.45,145.23 17.04,45.6 9.65,73.81 -39.53,86.89 -10.34,2.76 -19.62,9.52 -35.02,17.26 -23.62,-83.61 -46.79,-165.55 -69.92,-247.51 -18.66,-66.14 -38.57,-131.97 -54.82,-198.7 -3.23,-13.24 3.48,-33.82 13.02,-44.15 15.93,-17.22 34.04,-13.47 51.88,5 56.51,58.59 114.79,115.46 172.56,172.83 4.05,4.02 9.38,6.74 21.19,15.04 -11.47,-70.28 -21.67,-132.86 -32.44,-199.42z"/>
   <path class="fil7" d="M7244.17 10321c-18.93,-11.28 -34.76,-21 -62.38,-37.97 33.21,96.87 62.32,181.8 93.3,272.14 -30.41,11.22 -60.22,22.2 -95.46,35.19 -55.07,-158.15 -108.83,-312.54 -162.74,-467.4 29.9,-24.58 55.36,-20.86 85.87,-1.87 88.9,55.37 179.73,107.66 281,167.8 -32.03,-94.08 -60.45,-177.53 -90.26,-265.11 31.3,-11.05 61.49,-21.72 95.76,-33.82 55.67,160.28 110.32,317.63 170.44,490.72 -33.78,-6.86 -59.95,-6.1 -79.35,-17.19 -78.82,-45 -155.56,-93.64 -236.17,-142.5z"/>
   <g>
    <path class="fil8" d="M6105.81 10351.83c29.58,89.58 15.54,128.17 -71.25,200.79 51.78,68.3 103.6,136.64 160.41,211.59 -34.44,2.02 -62.14,6.85 -89.05,4.06 -17.5,-1.82 -38.89,-10.52 -49.77,-23.49 -38.16,-45.52 -70.79,-95.69 -109.24,-140.94 -14.12,-16.61 -38.58,-24.41 -66.9,-41.36 0,80.37 0,144.09 0,212.95 -33.96,1.93 -67.43,3.84 -105.71,6.01 -6,-168.01 -11.86,-331.81 -18.13,-507.38 76.55,0 148.23,-2.61 219.62,0.86 53.44,2.59 100.45,23.49 130.01,76.91l0 0zm-162.26 133.75c54.83,-13.11 75.47,-36.78 66.88,-76.74 -8.96,-41.67 -66.26,-58.44 -135.31,-40.58 0,40.17 0,79.77 0,121.79 23.44,-1.05 42.06,-1.88 68.44,-4.47z"/>
   </g>
   <path class="fil7" d="M4368.81 1831.68c-16.45,-77.3 -31.84,-150.77 -47.61,-226.05 28.87,-19.49 53.42,-18.76 82.06,6.35 69.47,60.9 141.76,118.58 213.01,177.45 2.23,1.84 5.52,2.38 13.94,5.81 -17.4,-83.28 -34.1,-163.23 -52.03,-249.03 31.57,-7 61.25,-13.58 97.16,-21.55 34.57,160.45 68.98,320.19 103.38,479.85 -30.89,18.54 -53.46,10.62 -77.48,-10.35 -74.01,-64.62 -149.62,-127.42 -233.39,-186.67 16.87,81.2 33.74,162.4 51.78,249.27 -31.82,6.9 -61.53,13.35 -96.84,21 -17.76,-81.3 -35.34,-161.79 -53.98,-246.1z"/>
   <g>
    <path class="fil8" d="M7609.53 2210.13c-78,-17.76 -151.97,-35.62 -232.34,-55.01 52.34,-159.95 102.14,-312.24 153.85,-470.3 55.43,16.75 109.77,30.07 161.7,49.74 49.74,18.83 91.87,49.38 99.12,108.48 7.16,58.38 -18.88,99.55 -70.78,125 81.28,110.63 5.98,240.56 -111.55,242.1l0 0zm-65.76 -229.49c-12.55,37.85 -25.1,75.71 -38.75,116.87 23.49,7.13 42.16,14.96 61.6,18.3 51.86,8.92 86.53,-20.02 86.9,-70.51 0.3,-39.56 -42.88,-68.25 -109.76,-64.65l0 0zm52.96 -84.85c10.54,2.35 20.96,5.47 31.63,6.88 27.19,3.6 49.98,-2.43 58.18,-32.42 8.38,-30.65 -9.35,-46.41 -35,-55.93 -15.19,-5.64 -31.01,-9.61 -57.51,-17.66 -1.64,36.49 -2.98,66.35 2.7,99.13z"/>
   </g>
   <g>
    <path class="fil7" d="M6069.87 1432.02c88.09,-19.48 175.34,-19.71 255.76,21.02 75.29,38.12 89.24,145.84 31.01,211.15 -14.35,16.09 -32.95,28.43 -53.76,46 38.45,69.18 78.12,140.57 120.58,216.99 -30.79,0 -56.1,4.39 -78.86,-1.34 -19.76,-4.96 -42.99,-17.26 -53.58,-33.53 -30.68,-47.1 -54.37,-98.7 -83.93,-146.59 -8.35,-13.52 -27.45,-20.43 -48.93,-35.5 -5.75,74.18 -10.45,134.75 -15.23,196.55 -33.53,0 -65.57,0 -105.94,0 10.93,-159.56 21.56,-314.99 32.89,-474.77l0 0zm198.32 103.94c-30.51,-8.16 -61.03,-16.31 -95.51,-25.53 -3.84,44.21 -6.85,79.03 -11.12,128.11 43.26,-10.63 80.25,-14.13 110.4,-30.34 9.78,-5.26 1.68,-43.8 -3.78,-72.24z"/>
   </g>
   <path class="fil9" d="M5335.74 1429.48c60.45,-18.6 116.81,-21.47 173.68,0.29 36.48,13.95 56.37,32.08 30.1,71.81 -7.63,11.55 -12.16,25.14 -16.19,33.74 -40.55,-8.89 -79.69,-26.87 -117.19,-23.89 -107.62,8.55 -158.87,145.44 -97.17,250.47 22.08,37.59 55.08,61.38 98.82,62.36 78.41,1.76 102.54,-12.15 78.49,-96.51 -17.6,0 -35.86,0 -59.85,0 -2.66,-29.24 -5.23,-57.63 -8.07,-88.88 57.57,-4.39 110.15,-8.41 168.53,-12.88 5.26,72 11.39,141.43 14.3,210.98 0.44,10.57 -11.54,25.87 -21.9,32.02 -89.35,53.01 -184.14,75 -280.65,24.32 -96.19,-50.53 -123.05,-142.61 -120.04,-242.76 3.14,-104.29 52.68,-181.43 157.13,-221.07z"/>
   <path class="fil9" d="M5394.67 10761.85c-67.14,-27.47 -109.37,-73.06 -105.75,-143.57 6.15,-119.87 19.07,-239.42 29.52,-363.73 36.04,3.64 68.15,6.86 105.15,10.6 -8.86,105.94 -17.13,209.97 -26.4,313.91 -6.05,67.84 18.81,103.28 78.35,108.91 71.33,6.74 106.39,-22.4 112.3,-92.77 8.64,-102.83 17.58,-205.65 26.78,-313.05 35.49,2.33 67.69,4.43 105.62,6.92 -7.83,91.65 -15.31,179.71 -22.91,267.76 -1.21,14.03 -4.36,28.02 -4.31,42.02 0.45,145.29 -108.84,184.39 -207.32,179.39 -29.35,-1.49 -58.36,-9.98 -91.04,-16.38z"/>
   <path class="fil7" d="M6240.05 10694.89c-18.35,-60.45 -38.22,-117.58 -49.53,-176.36 -15.63,-81.23 -24.79,-163.71 -37.29,-249.54 33.87,-5.27 65.66,-10.24 104.19,-16.24 9.42,63.6 18.65,124.6 27.44,185.67 6.9,48 12.44,96.2 20.07,144.09 8.28,52.05 43.71,77.5 97.22,71.87 64.97,-6.82 97.68,-37.89 91.09,-94.74 -12.6,-108.75 -28.95,-217.05 -44.62,-331.94 33.36,-4.76 66.43,-9.5 104.78,-14.99 17.03,124.8 38.25,244.82 48.08,365.77 5.84,71.81 -42.31,120.8 -107.44,144.2 -86.4,31.05 -174,44.31 -253.99,-27.79z"/>
   <path class="fil9" d="M3997.12 2108.86c-28.05,-19.92 -53.28,-37.95 -77.89,-55.53 -48.82,71.09 11.42,126.17 22.82,191.65 -29.66,11.41 -59.53,22.88 -93.99,36.13 -59.16,-152.78 -116.97,-302.07 -176.37,-455.49 32.93,-12.76 61.63,-23.9 96.05,-37.23 23.51,59.55 46.47,117.72 74.12,187.72 17.02,-65.47 34.06,-117.06 43.17,-170.01 8.92,-51.89 30.8,-86.03 85.25,-94.82 13.19,-2.13 25.73,-8.46 44.66,-14.93 -19.64,76.29 -35.98,147.52 -56.94,217.38 -8.35,27.81 -2.8,41.74 20.49,57.57 78.77,53.54 155.93,109.48 234.14,164.81 -3.94,4.8 -5.18,7.27 -7.18,8.66 -79.47,55.12 -144.85,24.77 -208.32,-35.89z"/>
   <path class="fil6" d="M4982.47 1869.36c54.71,-9.85 105.41,-18.83 161.79,-28.81 6.12,29.79 11.88,57.79 18.86,91.72 -105.35,18.52 -207.42,36.47 -313.29,55.07 -28.6,-160.55 -56.48,-317.1 -85.6,-480.54 104.77,-18.56 208.19,-36.87 315.19,-55.82 5.97,30.28 11.35,57.51 17.94,90.9 -70.42,13.11 -140.29,26.11 -213.84,39.8 5.22,28.91 10.04,55.53 15.56,86.08 50.86,-8.14 98.28,-15.74 151.32,-24.23 5.75,27.73 11.28,54.35 17.92,86.32 -50.27,9.79 -98.58,19.2 -151.96,29.58 6.15,38.46 11.93,74.53 18.22,113.84 16.71,-1.16 30.3,-2.11 47.88,-3.92z"/>
   <path class="fil9" d="M8043.72 2079.8c23.14,10.34 42.93,19.48 67.72,30.93 -11.83,26.85 -23.28,52.88 -35.84,81.4 -48.54,-20.72 -93.92,-40.09 -142.61,-60.89 -16.71,36.28 -32.19,69.92 -49.65,107.83 64.71,29.25 128.08,57.91 194.59,87.98 -12.64,28.65 -23.82,53.95 -37.42,84.77 -96.69,-42.55 -191.55,-84.29 -290.64,-127.9 66.69,-148.59 132.21,-294.58 200.12,-445.89 98.01,43.03 193.12,84.81 293.51,128.88 -12.2,27.83 -23.7,54.07 -37.57,85.72 -66.48,-28.97 -131.25,-57.2 -199.51,-86.95 -12.25,27.74 -23.44,53.1 -35.74,80.95 24.69,11.34 47.18,21.65 73.04,33.18z"/>
   <path class="fil9" d="M5806.85 1805.77c59.07,0.04 113.63,0.04 171.22,0.04 0,33.54 0,62.25 0,91.2 -105.48,0 -208.01,0 -310.41,0 0,-163.11 0,-322.08 0,-484.35 109.01,0 212.9,0 320.44,0 0,30.95 0,59.48 0,91.65 -70.96,0 -140.71,0 -214.7,0 -1.43,29.15 -2.71,55.05 -4.22,86.14 52.99,2.61 103.81,5.09 155.44,7.63 0,28.94 0,55.11 0,84.74 -51.24,0 -100.63,0 -157.28,0 0,35.47 -2.55,67.98 1.61,99.6 1.2,9.08 21.73,15.62 37.9,23.35z"/>
   <g>
    <path class="fil7" d="M4619 10547.19c-26.48,-3.19 -47.83,-21.53 -69.47,9.83 -51.21,74.27 -53.1,72.97 -153.65,35.33 27.03,-37.14 53.34,-73.31 79.68,-109.46 73.61,-101.07 146.64,-202.55 221.62,-302.59 8.79,-11.74 30.03,-23.41 42.3,-20.68 12.4,2.76 27.28,22.2 30,36.46 29.05,151.78 55.97,303.98 83.21,456.11 2.44,13.56 2.95,27.48 5.25,50.2 -35.21,-8.13 -66.64,-13.63 -96.66,-23.43 -8.31,-2.72 -15.93,-17.55 -17.93,-27.97 -15.18,-78.58 -14.72,-78.63 -93.35,-96.09 -9.14,-2.03 -18.12,-4.78 -31,-7.7l0 0zm24.2 -75.11c23.58,5.28 47.18,10.58 75.62,16.96 -5.79,-53.86 -10.99,-102.12 -17.47,-162.29 -30.13,47.27 -54.57,84.51 -77.14,122.84 -2.13,3.63 7.53,14.18 18.99,22.49z"/>
   </g>
   <g>
    <path class="fil7" d="M6706.06 10486.79c17.57,-102.61 33.61,-201.36 52.19,-299.63 2.22,-11.77 16.48,-25.41 28.3,-29.89 9.41,-3.56 28.92,1.59 34.91,9.62 104.48,140.17 207.58,281.38 314.6,427.31 -35.82,8.19 -65.73,18.17 -96.21,20.44 -11.99,0.9 -31.23,-12.53 -36.89,-24.37 -23.83,-49.74 -56.61,-53.95 -109.09,-44.31 -76.65,14.07 -123.39,42.12 -108.32,128.64 -40.03,9.17 -74.65,17.11 -117.42,26.92 13.01,-73.77 25.1,-142.24 37.94,-214.73l0 0zm170.09 -83.58c-14.85,-22.48 -29.7,-44.96 -51.28,-77.63 -5.76,61.11 -10.28,108.93 -15.33,162.38 38.3,-9.39 68.73,-16.85 103.71,-25.44 -14.01,-21.99 -23.95,-37.57 -37.1,-59.31z"/>
   </g>
   <g>
    <path class="fil8" d="M4289.59 10378.7c-15.44,-4.53 -27.17,-8.17 -41.45,-12.59 -19.36,54.34 -38.06,106.89 -58.85,165.25 -33.02,-11.24 -64.45,-21.93 -99.37,-33.81 27.93,-81.09 54.56,-158.94 81.55,-236.64 26.56,-76.49 53.46,-152.83 84.16,-240.5 75.33,31.21 150.5,56.3 219.71,92.71 71.55,37.62 92.7,94.35 74.19,159.76 -23.25,82.2 -77.75,126.02 -159.88,123.33 -32.26,-1.06 -64.23,-10.82 -100.06,-17.51l0 0zm153.9 -132.14c-2.19,-55.67 -33.89,-82.96 -119.11,-100.88 -10.26,28.53 -20.87,57.35 -30.94,86.36 -5.03,14.48 -9.07,29.3 -13.43,43.58 79.8,44.86 132.72,37.17 163.49,-29.06z"/>
   </g>
   <path class="fil10" d="M5113.09 10224.5c49.08,13.96 94.27,27.36 146.06,42.71 -21.35,38.31 -35.56,63.79 -46.09,82.71 -39.75,-14.12 -75.17,-31.21 -112.44,-37.91 -16.66,-3 -46.33,10.35 -53.15,24.47 -6.85,14.16 2.37,42.23 13.63,57.5 14.33,19.42 37.6,32.36 57.4,47.61 22.28,17.17 47.2,31.52 67.11,51.04 78.9,77.34 49.36,200.88 -56.46,231.56 -88.42,25.62 -169.56,5.5 -245.05,-50.58 16.72,-27.21 32.15,-52.35 45.08,-73.4 44.11,15.44 84.81,34.11 127.52,42.57 18.08,3.59 52.96,-9.85 57.76,-23.45 6.6,-18.72 -1.39,-50.78 -15.19,-66.63 -23.07,-26.52 -55.11,-45.53 -84.39,-66.3 -73.2,-51.91 -97.54,-107.62 -74.83,-174.28 20.84,-61.18 84.76,-94.49 173.04,-87.61z"/>
   <path class="fil9" d="M5769.42 830.43c17.22,-43.32 33.1,-83.14 52.91,-132.76 18.47,46.34 37.26,82.45 47.04,120.85 11.59,45.46 38,58.7 81.13,56.06 38.3,-2.35 76.86,-0.49 115.3,-0.49 0.86,4.75 1.72,9.5 2.58,14.25 -37.01,30.18 -75.7,58.62 -110.12,91.53 -11.4,10.9 -18.71,34.53 -15.91,50.19 8.18,45.59 22.41,90.11 37.91,148.89 -51.02,-32.67 -89.86,-60.36 -131.59,-82.66 -13.94,-7.45 -38.63,-7.42 -52.57,0.07 -42.45,22.82 -82.05,50.95 -130.96,82.27 14.18,-55.33 28.45,-101.98 37.04,-149.63 2.78,-15.4 -4.38,-38.72 -15.59,-49.35 -33.75,-32 -71.73,-59.55 -106.99,-100.37 45.15,-2.04 90.3,-5.49 135.46,-5.61 29.26,-0.08 47.82,-9.8 54.34,-43.25z"/>
   <path class="fil6" d="M3196.51 2510.54c28.52,-40.65 15.95,-74.75 -30.56,-82.08 -33.7,-5.32 -68.64,-3.13 -103.03,-3.56 -83.52,-1.03 -140.77,-40.73 -155.6,-108.48 -14.43,-65.94 17.53,-127.58 91.01,-162.07 36.6,-17.18 77.82,-24.48 121.44,-37.6 6.78,40.82 11.55,69.44 16.36,98.41 -28.97,4.57 -57.6,3.09 -79.74,14.34 -20.42,10.39 -33.87,34.46 -50.39,52.51 19.93,13.96 38.14,34.28 60.24,40.25 26.29,7.11 55.9,1.88 84.08,2.04 81.47,0.47 140.59,39.3 160.14,105.15 18.35,61.78 -11.63,127.5 -78.7,170.5 -45.64,29.26 -94.6,46.46 -152.26,38.65 -4.28,-32.16 -8.33,-62.54 -11.38,-85.49 44.73,-14.37 85.18,-27.37 128.4,-42.58z"/>
   <path class="fil9" d="M8448.01 2370.4c-12.56,21.94 -22.97,41.22 -34.84,59.56 -66.59,102.82 -155.74,120.14 -255.76,50.08 -61.55,-43.12 -76.08,-102.41 -41.02,-173.59 33.38,20.88 74.59,25.54 84.81,79.37 7.88,41.53 75.91,49.25 103.81,14.54 24.23,-30.12 42.64,-65.15 62.04,-98.92 38.78,-67.48 76.49,-135.59 116.42,-206.63 30.66,16.88 58.84,32.38 90.38,49.75 -42.62,76.33 -83.49,149.53 -125.85,225.83z"/>
   <path class="fil6" d="M6990.48 1833.66c9.52,-41.8 18.47,-79.72 29.35,-125.86 -35.97,9.4 -67.36,17.6 -100.92,26.37 3.61,-60.61 14.61,-108.19 85.8,-117.5 27.83,-3.65 52.79,-26.03 80.22,-36.96 20.66,-8.23 43.2,-11.82 75.99,-20.36 -40.14,172.31 -76.79,329.56 -114.02,489.35 -34.61,-7.9 -64.48,-14.72 -100.34,-22.92 14.86,-64.58 29.09,-126.42 43.91,-192.12z"/>
   <path class="fil9" d="M6598.16 1511.48c-17.99,146.61 -35.32,289.19 -53.58,439.54 -33.44,-3.37 -65.04,-6.54 -103.31,-10.4 19.97,-162.5 39.49,-321.34 59.6,-484.94 35.72,4.33 67.54,8.19 102.44,12.42 -1.75,15.36 -3.13,27.35 -5.14,43.37z"/>
   <path class="fil9" d="M8616.55 2454.29c-45.08,71.34 -88.4,139.75 -132.77,209.78 -29.27,-18.14 -55.57,-34.42 -87.57,-54.25 86.95,-138.13 172.82,-274.53 260.83,-414.36 30.86,19.43 57.96,36.47 87.52,55.08 -43.47,69.14 -84.87,134.97 -128.01,203.75z"/>
   <path class="fil11" d="M3077.46 9232.69c-2.22,-13.18 -2.84,-24.16 -6.11,-41.69 -14.16,-98.03 -25.69,-189.53 -37.21,-281.03 7.56,5.02 15.11,10.06 24.04,22.03 11.35,79.17 21.31,151.38 31.29,223.61 2.87,0.47 5.72,0.96 8.59,1.43 15.43,-50.97 30.85,-101.95 46.27,-152.91 5.75,4.54 11.52,9.09 18,16.6 -18.75,67.76 -37.62,132.75 -58.54,197.08 -2.47,7.57 -16.22,11.48 -26.33,14.88z"/>
   <g>
    <path class="fil12" d="M8965.78 8248.44c-3.85,-10.79 -9.88,-24.96 -8.71,-38.51 13.45,-156.07 28.1,-312.04 42.15,-468.06 2.46,-27.22 3.67,-54.56 -5.26,-84.76 -75.91,139.3 -145.95,282.22 -229.37,416.86 -83.82,135.29 -180.96,262.35 -272.27,393.01 -4.53,-1.5 -9.07,-3 -13.6,-4.5 -20.5,-64.23 -41.01,-128.47 -63.16,-197.87 -714.01,725.4 -1578.09,1096.88 -2592.33,1096.99 -1014.92,0.1 -1879.3,-370.83 -2593.73,-1097.28 -21.11,66.11 -41.7,130.57 -64.75,202.76 -213.22,-249.22 -377.17,-520.82 -507.2,-814.34 -6.12,2.19 -12.26,4.37 -18.39,6.57 2.99,37.62 5.56,75.28 9.04,112.85 13.82,149.75 28.01,299.46 41.75,449.21 0.85,9.18 -0.9,18.58 -5.21,29.05 -176.16,-246.29 -324.05,-507.14 -436.97,-787.38 -144.98,-359.81 -236.11,-732.36 -263.94,-1119.5 -73.08,-1016.53 206.97,-1925.62 851.73,-2714.12 568.13,-694.77 1298.02,-1138.06 2176.84,-1324.07 882.48,-186.78 1737.27,-88.53 2540.45,323.08 1112.18,569.99 1811.6,1472.48 2051.12,2702.95 202.07,1038.09 -15.6,1999.87 -610.35,2875.25 -8.8,12.95 -17.78,25.8 -27.84,41.79l0 0zm-463.79 -3535.8c69.31,39.4 142.34,73.53 207.11,119.33 122.63,86.7 254.45,127.94 404.33,107.42 15.28,-2.1 31.08,-0.28 45.62,-0.28 40.89,94.85 95.32,131.65 169.8,116.44 66.98,-13.67 114.76,-69.69 115.36,-135.26 0.59,-64.59 -47.72,-123.54 -113.04,-137.93 -72.84,-16.05 -128.38,21.35 -173.55,118.16 -66.38,0 -133.78,2.37 -200.86,-1.08 -29.66,-1.53 -61.56,-9.6 -87.56,-23.7 -120.82,-65.56 -239.93,-134.27 -365.01,-207.99 -3.31,-40.77 -9.3,-81.57 -8.99,-122.31 0.2,-27.26 -9.31,-41.95 -32.31,-54.66 -77.57,-42.86 -154.11,-87.56 -228.67,-137.86 27.51,-39.88 53.15,-81.22 83.11,-119.17 21.82,-27.63 19.86,-44.78 -5.7,-69.86 -198.59,-195.05 -396.2,-391.11 -592.41,-588.54 -28.41,-28.58 -47.31,-32.67 -81.73,-8.84 -120.67,83.56 -243.97,163.33 -371.46,241.04 -304.82,-174.36 -609.63,-348.7 -916.46,-530.37 -15.95,-84.52 -33.82,-168.73 -47.04,-253.67 -6.61,-42.46 -20.77,-58.88 -68.15,-58.4 -275.86,2.81 -551.77,2.32 -827.67,0.35 -40.99,-0.3 -56.5,11.27 -63.41,51.84 -15.46,90.67 -36.65,180.35 -61.96,273.39 -304.38,173.93 -608.77,347.85 -919.5,519.22 -119.16,-81.08 -239.34,-160.72 -356.83,-244.15 -33.21,-23.59 -50.71,-18.72 -77.62,8.55 -139.84,141.71 -282.43,280.68 -422.89,421.77 -66.16,66.46 -129.68,135.55 -195.88,205.01 31.69,50.34 66.51,105.65 94.67,164.36 -47.52,27.2 -92.61,60.7 -143.09,80.21 -88.03,34.04 -126.57,89.82 -110,184.62 2.4,13.69 -12.64,37.36 -26.22,45.75 -69.15,42.75 -144.34,76.56 -210.16,123.65 -117.58,84.09 -244.72,119.49 -387.51,100.9 -1.54,-0.19 -3.16,-0.21 -4.69,0.01 -26.81,3.79 -40.18,-5.49 -50.64,-33.4 -23.87,-63.73 -92.2,-98.27 -155.56,-85.2 -66.22,13.65 -113.63,70.58 -113.87,136.7 -0.24,66.82 45.48,121.97 113.13,136.45 64.88,13.89 131.53,-18.68 155.81,-83.14 10.66,-28.28 24.54,-36.56 50.9,-32.88 158.15,22.05 297.62,-22.19 426.21,-113.92 51.96,-37.06 110.53,-64.86 166.22,-96.67 10.33,-5.9 21.18,-10.9 38.24,-19.6 0,266.12 0,525.53 -7.11,787.37 -138.45,25.99 -276.9,51.98 -415.65,78.02 -1.52,26.14 -2.79,47.75 -12.17,67.47 -65.68,-0.24 -131.37,-1.22 -197.03,-0.32 -24.47,0.34 -38.04,-4.67 -48.29,-31.18 -25.88,-66.95 -91.16,-99.88 -158.88,-86.4 -64.14,12.77 -112.17,72.39 -111.38,138.25 0.77,64.21 48.29,121.97 110.23,133.98 69.88,13.53 134.15,-17.91 159.55,-84.46 10.07,-26.36 22.76,-31.66 47.64,-31.38 68.76,0.79 137.53,-0.84 207.71,7.7 -0.48,231.86 -0.96,463.72 -9.6,694.01 -65.67,-0.21 -131.35,-1.05 -197.01,-0.29 -23.82,0.28 -38.03,-2.97 -48.38,-30.31 -25.9,-68.4 -93.16,-100.56 -163.57,-84.83 -61.17,13.66 -107.37,73.08 -106.59,137.08 0.78,63.99 48.23,121.8 110.27,134.33 68.18,13.76 133.87,-18.67 159.68,-84.92 10.07,-25.86 22.47,-32.29 47.57,-32.11 68.71,0.49 137.42,-1.37 207.17,6.94 2.48,74.73 2.43,74.97 76.36,89.65 116.47,23.13 233.01,45.9 349.25,77.58 0,250.84 0,501.68 0,760.05 -110.45,-63.03 -213.63,-118.42 -313.03,-179.92 -62.06,-38.41 -124.39,-60.14 -198.24,-53.19 -52.21,4.9 -105.24,0.95 -155.64,0.95 -4.52,-9.91 -6.67,-14.03 -8.33,-18.36 -28.02,-72.95 -86.77,-110.28 -155.69,-98.83 -69.43,11.53 -118.73,67.7 -119.35,135.93 -0.6,66.34 46,123.76 112,137.99 67.15,14.48 129.28,-21.96 162.07,-90.75 5.97,-12.51 25.63,-25.68 39.43,-26.2 208.68,-7.92 208.68,-7.41 391.95,97.77 42.03,24.13 82.05,53.65 126.78,70.79 95.81,36.71 138.88,98.33 119.73,202.37 -2.68,14.51 14.02,40.05 28.75,49.07 75.93,46.51 154.13,89.32 229.53,139.21 -35.84,52.48 -71.67,104.94 -100.71,147.46 221.14,225.04 437.01,444.73 654.83,666.38 16.05,-10.67 31.46,-20.96 46.94,-31.18 120.02,-79.23 240.08,-158.46 366.53,-234.51 305.15,174.22 610.28,348.43 917.23,530.68 19.44,102.12 38.87,204.22 57.88,304.08 316.28,0 625.79,0 936.24,0 21.17,-106.82 41.82,-210.95 68.71,-316.98 304.97,-174.78 609.93,-349.53 921.17,-521.54 133.12,89.64 266.24,179.28 418.1,281.54 208.02,-215.56 416.7,-431.29 623.84,-648.51 7.98,-8.37 6.93,-34.46 -0.04,-46.33 -27.59,-47.01 -59.23,-91.64 -83.34,-139.75 74.23,-42.73 147.95,-86.39 223,-127.63 23.37,-12.84 33.92,-27.06 32.75,-54.58 -1.92,-45.11 0.49,-90.41 7.72,-136.44 124.92,-71.42 249.66,-143.14 374.96,-213.91 15.79,-8.93 34.32,-17.73 51.79,-18.19 76.65,-1.97 153.37,-0.85 229.12,-0.85 41.31,94.3 96.2,132.33 169.27,118.76 65.16,-12.09 114.83,-69.75 116.44,-135.18 1.55,-63.13 -44.62,-121.97 -107.48,-137 -77.86,-18.61 -130.93,14.91 -179.39,114.66 -67.89,0 -136.88,-2.65 -205.53,1.15 -32.68,1.82 -67.82,10.09 -96.45,25.47 -121.13,65.11 -240.25,133.99 -360.96,192.27 -0.21,-253.78 -0.41,-507.56 7.27,-763.8 110.41,-19.75 220.76,-39.86 331.25,-59.14 83.15,-14.5 83.23,-14.03 96.2,-97.69 61.12,0.06 122.31,2.02 183.32,-0.58 33.94,-1.43 51.45,6.71 65.45,41.34 26.22,64.83 103.34,93.8 169.58,71.47 65.79,-22.18 106.85,-89.69 94.01,-154.54 -14.55,-73.45 -74.28,-120.13 -148.65,-115.07 -72.56,4.94 -110.57,50.91 -132.47,117.83 -80.34,0 -160.11,0 -241.06,-9.09 0.39,-230.69 0.78,-461.37 9.78,-691.84 76.69,0 153.37,0 230.7,0 3.92,8.96 7.06,15.9 10.01,22.93 30.76,73.28 91.28,107.26 164.3,92.21 62.16,-12.81 109.96,-71.44 110.12,-135.1 0.16,-62.79 -47.71,-122.43 -109.41,-136.31 -68.67,-15.44 -132.88,17.81 -162.29,87.98 -9.62,22.93 -21.49,29.59 -45.1,29.15 -68.93,-1.29 -137.91,-0.12 -207.82,-8.85 -0.89,-19.74 -1.79,-39.46 -2.66,-58.72 -144.36,-27.93 -283.76,-54.9 -422.87,-90.26 0.42,-257.58 0.84,-515.18 7.91,-771.13z"/>
   </g>
   <g>
    <path class="fil13" d="M6800.54 9812.4c-423.48,97.69 -848.51,134.04 -1277.8,101.98 -863.67,-64.52 -1640,-358.01 -2320.08,-898.26 -41.7,-33.13 -82.84,-67.12 -122.02,-103.12 -9.87,-9.06 -18.69,-29.74 -15.22,-41.25 56.3,-187.16 114.65,-373.68 173.75,-564.23 714.31,713.29 1575.6,1077.11 2579.6,1078.11 1004.4,0.99 1866.39,-361.51 2585.9,-1076.8 6.29,18.96 11.57,34.12 16.36,49.43 49.1,156.75 96.01,314.24 148.41,469.86 16.56,49.18 8.18,77.68 -31.64,111.16 -501.43,421.6 -1069.83,710.1 -1706.21,865.03 -9.12,2.22 -18.12,4.94 -31.04,8.09l0 0zm1199.3 -988.96c-9.2,-2.2 -21.52,-9.36 -27.12,-5.83 -68.39,43.16 -135.78,87.86 -206.23,134.02 10.63,13.98 18.59,24.45 26.3,34.61 30.55,-18.58 57.82,-35.17 86.26,-52.46 47.05,70.29 91.08,136.07 136.85,204.44 16.92,-11.61 30.41,-20.85 46.38,-31.8 -46.06,-70.12 -90.08,-137.12 -135.08,-205.65 19.61,-13.34 36.59,-22.06 49.77,-34.72 11.86,-11.39 19.56,-27.11 34.67,-46.05 53.21,70.43 106.43,140.86 160.73,212.75 16.3,-12.68 29.28,-22.77 43.39,-33.75 -58,-80.28 -113.52,-157.14 -169.04,-233.98 -5.6,-0.22 -11.22,-0.44 -16.82,-0.67 -7.75,20.45 -15.5,40.92 -30.06,59.1l0 0zm-4359.56 95.17c-1.54,-1.33 -3.08,-2.67 -1.68,-9.73 17.16,-25.92 34.31,-51.84 53.25,-80.46 -16.2,-10.01 -29.93,-18.49 -45.51,-28.11 -55.98,81.71 -108.87,158.92 -164.09,239.52 16.74,10.69 30.15,19.26 44.77,28.59 24.32,-33.71 45.53,-63.12 66.71,-92.5 36.63,62.21 -10.34,152.59 87.84,192.48 -9.2,-70.19 -17.38,-132.59 -25.87,-197.25 52.02,-13.98 100.08,-26.9 135.01,-36.29 36.32,28.99 65.53,52.32 97.22,77.62 -40.49,68.11 -81.61,137.27 -124.16,208.84 20.19,11.04 34.36,18.79 49.56,27.1 43.7,-72.15 84.79,-140.02 127.23,-210.14 34.26,19.41 65.1,36.88 98.3,55.7 -37,72.29 -73.65,143.88 -111.35,217.52 19.14,9.72 32.66,16.6 50.68,25.76 45.05,-87.47 88.95,-172.7 131.41,-255.12 -75.15,-43.46 -148.49,-79.23 -214.31,-125.69 -75.19,-53.08 -149.68,-77.16 -236.84,-35.93 -4.08,1.93 -9.2,1.62 -18.18,-1.93l0 0zm1631.45 733.06c3.28,-13.28 6.55,-26.57 9.84,-39.87 33.99,2.59 64.67,4.91 97.77,7.43 0.94,-15.01 1.66,-26.66 2.5,-40.18 -33.28,-5.54 -63.57,-10.59 -96.53,-16.07 2.23,-23.89 4.2,-45.19 6.59,-70.81 28.6,3.47 53.01,6.88 77.51,9.29 26.49,2.6 57.21,9.34 44.81,-39.96 -56.25,-6.67 -113.01,-13.39 -173.06,-20.51 -12.44,98.09 -24.34,191.87 -36.67,288.98 69.97,8.69 135.16,15.64 199.94,25.37 28.23,4.24 45.74,-4.08 53.26,-30.98 16.88,-60.43 63.46,-30.46 99.69,-34.35 34.75,-3.74 43.33,18.88 48.01,44.03 7.74,41.5 31.52,47.51 70.67,35.24 -27.17,-86.88 -52.53,-171.96 -81.13,-255.93 -5.23,-15.38 -22.82,-35.58 -36.16,-36.72 -13.91,-1.19 -35.46,14.62 -43.46,28.78 -38.33,67.81 -73.21,137.57 -108.82,205.71 -38.83,-4.86 -74.23,-10.17 -109.82,-13.45 -25.26,-2.34 -31.66,-15.35 -24.95,-45.98l0 0zm1607.82 -62.05c5.17,14.26 10.36,28.53 16.44,45.29 16.69,-5.72 30.64,-10.51 45.94,-15.75 -17.04,-58.16 -33.2,-113.34 -49.37,-168.53 56.33,32.05 103.56,67.81 148.35,106.4 26.27,22.64 50.46,28.56 81.17,4.65 -27.43,-89.72 -55.07,-180.18 -83.72,-273.86 -17.97,5.56 -31.94,9.89 -47.87,14.81 17.09,58.79 33.18,114.18 49.28,169.56 -56.67,-32.98 -105.21,-69.49 -151.08,-109.11 -27.1,-23.39 -50.35,-24.54 -77.8,-1.26 22.53,74.33 44.7,147.45 68.66,227.79l0 0zm515.13 -229.94c-12.12,-61.04 -37.22,-113.28 -98.7,-138.68 -54.96,-22.71 -131.34,-0.79 -169.6,47.12 -39.27,49.18 -36.99,125.39 5.61,188.31 36.82,54.37 96.11,74.82 160.26,55.27 67.63,-20.61 101.56,-68.12 102.42,-152.02l0 0zm-2238.3 194.66c48.19,-65.19 31.72,-116.8 -44.78,-136.51 -32.73,-8.44 -66.33,-13.48 -102.68,-20.69 -19.55,97.43 -38.12,190.03 -57.41,286.22 21.2,3.53 37.39,6.21 54.75,9.1 9.62,-39.75 18.17,-75.15 26.73,-110.53 5.83,-1.5 11.67,-3 17.5,-4.49 16.01,33.25 35.43,65.34 47.09,100.05 13.04,38.78 38.04,48.09 81.71,44.98 -21.95,-48.84 -42.03,-93.5 -62.93,-140.01 11.95,-8.06 23.36,-15.75 40.02,-28.11l0 0zm-1647.62 -687.37c10.98,-37.52 23.87,-74.65 31.86,-112.8 2.8,-13.35 -2.1,-34.51 -11.58,-42.48 -9.3,-7.82 -31.85,-9.3 -43.45,-3.42 -65.59,33.25 -129.72,69.36 -194.12,104.92 -18.16,10.02 -35.55,21.46 -52.77,31.94 21.64,40.26 47.21,34.8 72.06,14.83 45.73,-36.75 65.06,11.7 94.67,27.4 27.31,14.46 31.84,35.6 18.78,62.04 -18.24,36.93 -4.05,58.63 37.22,72.23 15.23,-49.57 30.25,-98.47 47.31,-154.67l0 0zm4162.05 392.28c3.54,21.18 7.08,42.38 10.75,64.39 45.87,0.36 50.17,-27.5 42.35,-59.16 -13.58,-55 35.54,-56.13 62.16,-77.33 25,-19.91 45.82,-13.06 64.86,7.43 27.61,29.72 52.48,25.62 80.74,-8.36 -78.76,-61.7 -156,-123.98 -235.45,-183.29 -20.99,-15.68 -52.58,12.98 -49.38,43.51 7.14,68.25 15.22,136.4 23.97,212.8l0 0zm-2864.35 159.94c4.97,-22.12 9.97,-44.26 15.77,-70.03 -20.08,-3.45 -34.6,-5.94 -51,-8.76 -26.21,94.22 -51.26,184.24 -77.39,278.2 19.09,4.59 34.84,8.39 52.33,12.58 11.51,-39.1 21.94,-74.57 31.88,-108.31 57.77,41.15 37.47,149.6 146.87,151.99 -32.33,-63.01 -61.13,-119.11 -90.2,-175.77 49.35,-33.62 95.12,-64.8 148.08,-100.88 -88.68,-39.34 -121.45,51.65 -185.74,60.1 2.56,-11.22 4.93,-21.62 9.4,-39.12l0 0zm2582.54 -169.52c45.08,41 89.2,83.17 135.95,122.18 11.51,9.61 35.28,16.43 46.72,10.84 11.28,-5.52 20.1,-28.62 19.52,-43.62 -2,-51.42 -8.55,-102.65 -13.43,-153.96 -3.64,-38.17 -7.37,-76.33 -11.09,-114.77 -40.61,2.86 -49.46,19.45 -44.84,53.31 8,58.7 10.52,118.16 16.23,188.43 -53.69,-48.62 -98.6,-87.21 -140.97,-128.4 -25.52,-24.81 -46.74,-26.21 -73.56,4.76 20.43,19.19 40.44,37.97 65.46,61.23l0 0zm-1254.2 264.34c32.58,-2.1 65.16,-4.2 102.14,-6.58 -1.7,-16.39 -3.02,-29.03 -4.64,-44.86 -60.2,4.84 -115.82,9.33 -176.93,14.25 7.52,98.14 14.75,192.42 22.23,289.95 21.37,-1.47 37.63,-2.6 57.1,-3.95 -3.09,-42.96 -5.86,-81.56 -8.95,-124.48 34.48,-2.74 66.51,-5.28 100.85,-8.01 -1.12,-14.68 -0.73,-34.23 -2.9,-34.52 -31.49,-4.16 -63.32,-5.75 -104.55,-8.62 2.46,-23.57 4.96,-47.63 15.65,-73.19l0 0zm-2025.8 -311.24c-25.46,53.13 -50.92,106.29 -77.84,162.49 19.87,8.18 34.85,14.35 52.33,21.56 18.72,-37.81 35.77,-72.25 54.01,-109.12 31.81,13.92 59.97,26.25 91.78,40.17 5.97,-13.21 11.23,-24.82 17.22,-38.08 -31.21,-15.88 -58.75,-29.89 -89.37,-45.47 11.69,-23.08 22.47,-44.41 34.18,-67.54 27.31,12.66 49.82,23.24 72.45,33.56 39.16,17.86 39.2,17.79 49.69,-26.28 -50.2,-23.48 -100.68,-47.08 -155.65,-72.77 -16.52,34.03 -31.3,64.48 -48.79,101.48l0 0zm4136.75 -261.89c28.91,39.9 41.07,0.47 63.28,-10.43 -26.9,-35 -51.21,-66.64 -76.16,-99.1 26.94,-22.11 50.82,-41.72 77.38,-63.52 -10.55,-11.77 -19.07,-21.27 -28.45,-31.74 -27.55,20.44 -52.16,38.73 -79.36,58.94 -16.76,-20.77 -31.2,-38.67 -47.5,-58.87 31.74,-25.67 61.63,-49.85 94.11,-76.12 -11.36,-12.62 -20.05,-22.28 -29.58,-32.89 -47.04,37.19 -91,71.94 -137.85,108.99 54.56,68.04 107.19,133.67 164.13,204.74l0 0zm-2380.27 542.53c-53.09,-0.42 -106.21,0.28 -159.25,-1.64 -34.52,-1.25 -40.06,12.32 -27.1,41.36 31.92,1.99 62.63,3.91 97.91,6.1 0,83.07 0,163.34 0,243.24 19.9,0 34.88,0 56.68,0 0,-82.33 0,-162.49 0,-245.39 37.62,0 68.42,0 102.86,0 -0.79,-15.99 -1.42,-28.67 -2.15,-43.58 -22.61,0 -41.2,0 -68.97,-0.1l0 0zm136.34 -1.15c-16.43,0 -32.87,0 -44.21,0 0,99.01 0,193.52 0,292.15 24.89,-2.22 41.16,-3.67 49.04,-4.36 0,-97.7 0,-189.7 -4.83,-287.79l0 0zm822.96 124.84c-20.03,-79.67 -40.06,-159.34 -60.74,-241.57 -22.77,6.77 -38.53,11.46 -54.7,16.27 24.06,95.72 46.87,186.48 70.24,279.42 28.53,-5.94 63.68,0.23 45.19,-54.11l0 0zm-431.04 10.6c7.92,4.77 16.62,14.6 23.63,13.51 55.07,-8.53 109.82,-19.16 164.66,-29.14 1.95,-4.68 3.89,-9.38 5.82,-14.07 -11.86,-6.48 -24.49,-19.58 -35.44,-18.31 -46.31,5.42 -92.27,14.45 -138,23.84 -8.3,1.7 -14.99,11.22 -20.67,24.17l0 0zm-2006.07 -241.1c3.15,11.93 2.95,31.44 9.98,34.54 43.88,19.3 89.08,35.82 134.61,50.94 8.3,2.77 20.14,-5.08 30.33,-8.04 -5.4,-9 -8.81,-23.16 -16.54,-26.17 -50.33,-19.59 -101.61,-36.76 -158.38,-51.27z"/>
   </g>
   <path class="fil14" d="M9197.77 8482.48c-195.06,277.15 -513.6,639.89 -621.4,703.57 9.23,-74.33 15.8,-143.26 26.92,-211.47 7.96,-48.79 7.49,-94.24 -9.25,-142.23 -34.53,-98.93 -64.5,-199.52 -93.46,-300.25 -5.16,-17.99 -3.75,-46.15 7.13,-59.25 181.13,-218.2 333.31,-454.57 454.11,-711.15 1.85,-3.94 5.11,-7.21 14,-19.47 -16.7,183.82 -32.55,358.08 -48.98,538.96 140.81,-14.39 275.58,-28.17 424.84,-43.42 -54.78,87.19 -103.37,164.56 -153.92,244.7z"/>
   <path class="fil14" d="M3032.58 8907.23c13.08,94.24 24.61,185.74 36.56,281.39 -93.42,-87.79 -191.01,-176.25 -280.32,-272.41 -178.66,-192.35 -332.29,-404 -465.22,-630.5 -6.95,-11.86 -12.91,-24.27 -24.84,-46.83 143.62,14.39 278.83,27.94 419.14,41.99 -16.11,-177.89 -31.69,-349.87 -47.27,-521.85 2.43,-0.77 4.87,-1.54 7.3,-2.32 6.45,11.58 13.52,22.85 19.26,34.77 115.56,239.69 258.51,461.81 429.53,665.56 23.03,27.45 27.37,50.65 16.31,84.6 -39.22,120.34 -74.95,241.82 -110.44,365.61z"/>
   <path class="fil15" d="M3142.58 9001.39c-13.67,53.7 -29.09,104.68 -44.53,155.65 -2.87,-0.47 -5.72,-0.96 -8.59,-1.43 -9.98,-72.22 -19.95,-144.43 -29.69,-220.46 27.17,18.63 54.11,41.06 82.81,66.24z"/>
   <path class="fil16" d="M8520.69 9072.8c-25.08,-79.18 -20.61,-88.77 62.78,-131.16 -9.48,71.91 -18.45,140.03 -27.42,208.14 -3.44,0.21 -6.88,0.42 -10.33,0.63 -7.88,-24.71 -15.76,-49.42 -25.04,-77.61z"/>
   <path class="fil17" d="M5939.67 10486.47c-22.5,1.71 -41.12,2.54 -64.56,3.59 0,-42.02 0,-81.62 0,-121.79 69.06,-17.86 126.36,-1.09 135.31,40.58 8.59,39.95 -12.05,63.62 -70.75,77.63z"/>
   <path class="fil18" d="M7545.17 1977.43c65.48,-0.39 108.66,28.3 108.36,67.86 -0.37,50.5 -35.05,79.43 -86.9,70.51 -19.45,-3.34 -38.11,-11.17 -61.6,-18.3 13.65,-41.16 26.2,-79.01 40.15,-120.07z"/>
   <path class="fil19" d="M7593.22 1894.33c-2.17,-31.32 -0.83,-61.19 0.81,-97.67 26.5,8.05 42.32,12.02 57.51,17.66 25.65,9.52 43.38,25.28 35,55.93 -8.2,29.99 -30.99,36.02 -58.18,32.42 -10.67,-1.41 -21.09,-4.53 -35.14,-8.34z"/>
   <path class="fil19" d="M6270.96 1538.53c2.69,25.88 10.79,64.41 1.01,69.67 -30.15,16.21 -67.15,19.72 -110.4,30.34 4.26,-49.08 7.28,-83.91 11.12,-128.11 34.49,9.22 65,17.37 98.28,28.1z"/>
   <path class="fil20" d="M4639.56 10471.6c-7.82,-7.82 -17.48,-18.38 -15.35,-22 22.56,-38.33 47,-75.57 77.14,-122.84 6.48,60.18 11.68,108.43 17.47,162.29 -28.44,-6.38 -52.04,-11.68 -79.25,-17.45z"/>
   <path class="fil21" d="M6877.76 10406.29c11.55,18.66 21.48,34.24 35.5,56.23 -34.99,8.59 -65.41,16.05 -103.71,25.44 5.05,-53.45 9.57,-101.28 15.33,-162.38 21.57,32.67 36.43,55.15 52.89,80.71z"/>
   <path class="fil22" d="M4442.64 10249.95c-29.92,62.85 -82.84,70.53 -162.64,25.68 4.36,-14.27 8.4,-29.09 13.43,-43.58 10.07,-29.01 20.68,-57.84 30.94,-86.36 85.23,17.92 116.93,45.2 118.27,104.26z"/>
   <g>
    <path class="fil23" d="M2725.22 6383.54c0.48,-231.86 0.96,-463.72 0.74,-703.15 -0.72,-17.28 -0.73,-27 -0.73,-36.71 1.26,-21.62 2.53,-43.24 4.05,-69.38 138.75,-26.05 277.2,-52.04 422.6,-78.86 17.6,-3.79 28.24,-6.74 42.8,-9.59 37.78,-5.64 72.27,-9.09 105.18,-18.24 12.68,-3.53 28.37,-18.31 31.54,-30.79 64.37,-253.52 163.92,-492.01 299.27,-715.87 6.72,-11.11 5.89,-34.32 -1.41,-45.18 -63.58,-94.73 -129.45,-187.93 -195.4,-284.52 -8.48,-11.71 -16.21,-20.46 -23.93,-29.23 -34.83,-55.3 -69.64,-110.61 -101.34,-160.95 66.2,-69.46 129.72,-138.55 195.88,-205.01 140.46,-141.1 283.05,-280.07 422.89,-421.77 26.91,-27.27 44.41,-32.14 77.62,-8.55 117.5,83.43 237.67,163.07 361.6,247.67 17.61,11.15 30.46,18.76 45.11,29.19 25.74,16.54 42.59,47.93 79.28,25.75 225.06,-136.06 465.4,-235.43 720.89,-298.44 11.86,-2.93 27.36,-16.83 29.77,-28.07 14.05,-65.55 24.7,-131.83 38.05,-201.01 3.74,-19.81 5.91,-36.46 8.09,-53.11 18.86,-90.09 40.04,-179.77 55.5,-270.44 6.91,-40.57 22.42,-52.14 63.41,-51.84 275.89,1.97 551.8,2.46 827.67,-0.35 47.37,-0.48 61.53,15.94 68.15,58.4 13.22,84.94 31.09,169.15 47.87,260.94 4.22,23.68 7.63,40.08 10.92,60.26 11.18,63.65 24.89,123.22 32.72,183.56 3.87,29.72 18.82,38.89 43.69,44.75 242.41,57.08 470.95,149.66 684.17,277.61 45.92,27.57 75.68,24.67 110.86,-12.91 14.62,-9.45 26.54,-18.05 38.46,-26.65 122.29,-81.21 245.59,-160.98 366.26,-244.54 34.42,-23.83 53.32,-19.74 81.73,8.84 196.21,197.43 393.82,393.49 592.41,588.54 25.56,25.09 27.53,42.24 5.7,69.86 -29.95,37.95 -55.6,79.29 -86.74,123.9 -9.61,15.04 -15.57,25.35 -23.68,37.66 -64.31,90.27 -125.61,179.18 -189.2,266.41 -17.6,24.13 -16.48,41.29 -1.14,66.13 118.28,191.42 214.62,394.3 266.5,612.87 23.71,99.91 68.31,143.7 165.46,143.12 1.57,-0.01 3.14,0.01 7.63,0.65 14.49,2.97 26.07,5.31 37.63,7.66 139.41,26.98 278.81,53.95 423.17,81.88 0.87,19.26 1.77,38.98 2.78,66.39 0.34,18.49 0.56,29.29 0.77,40.11 -0.39,230.69 -0.78,461.37 -0.8,699.87 0.53,18.67 0.69,29.51 0.85,40.35 -4.37,84.13 -4.45,83.66 -87.6,98.16 -110.49,19.28 -220.84,39.39 -338.03,60.3 -19.7,4.55 -32.62,7.95 -49.73,11.39 -33.51,4.87 -63.86,6.55 -91.73,15.76 -16.06,5.3 -36.9,20.55 -40.6,35.13 -63.95,252.13 -163.27,489.09 -297.49,711.78 -6.6,10.96 -9.24,32.45 -2.96,41.76 64.71,95.88 131.65,190.26 198.85,288.05 7.88,12.94 14.89,22.89 21.89,32.85 30.13,45.51 61.77,90.14 89.36,137.15 6.97,11.88 8.02,37.96 0.04,46.33 -207.14,217.21 -415.82,432.95 -623.84,648.51 -151.85,-102.25 -284.98,-191.9 -422.95,-285.08 -16.32,-10.65 -27.79,-17.76 -41.3,-27.15 -27.34,-18.43 -43.64,-51.21 -85.51,-25.51 -219.82,134.95 -456.72,229.84 -706.17,294.73 -16.75,4.35 -38.25,22.86 -42.12,38.58 -15.24,61.98 -24.3,125.49 -36.56,191.55 -4.23,20.34 -7.57,37.55 -10.91,54.77 -20.65,104.14 -41.3,208.28 -62.47,315.09 -310.45,0 -619.96,0 -936.24,0 -19.01,-99.86 -38.44,-201.96 -58.8,-311.19 -4.89,-25.4 -8.87,-43.69 -13.36,-66.12 -10.82,-60.95 -23.24,-117.47 -30.54,-174.64 -3.79,-29.69 -14.84,-41.94 -44.34,-49.02 -241.42,-57.97 -469.97,-149.39 -682.6,-277.42 -47.52,-28.62 -78.93,-24.77 -115.49,14.1 -14.09,9.33 -25.24,17.85 -36.4,26.37 -120.03,79.21 -240.09,158.44 -360.11,237.67 -15.48,10.22 -30.89,20.51 -46.94,31.18 -217.82,-221.66 -433.69,-441.34 -654.83,-666.38 29.03,-42.52 64.87,-94.98 104.08,-152.24 9.23,-15.21 15.07,-25.64 23.5,-38.01 62.85,-87.55 121.72,-174.22 184.18,-258.18 21.55,-28.97 19.56,-49.36 1.62,-78.73 -118.71,-194.4 -208.27,-401.74 -269.95,-621.12 -33.45,-118.94 -34.48,-119.27 -166.36,-128.76 -13.79,-3.43 -24.94,-4.72 -36.09,-6.03 -116.51,-22.93 -233.05,-45.7 -349.52,-68.84 -73.93,-14.68 -73.88,-14.92 -76.73,-97.13 -0.45,-17.27 -0.53,-27.06 -0.61,-36.84l0 0zm4679.08 1599.55c0.08,47.05 -1.14,94.15 0.66,141.15 1.4,36.28 22.5,58.09 58.96,61.03 37.21,3 59.63,-17.89 67.35,-52.25 4.39,-19.51 2.74,-40.49 2.81,-60.82 0.25,-77.36 0.1,-154.7 0.1,-242.09 69.09,59.44 135.24,104.99 116.04,202.07 -6.26,31.67 -1.9,65.69 -0.62,98.57 1.49,38.07 20.93,61.79 60.26,64.96 37.07,2.97 64.29,-21.25 68.8,-61.67 1.97,-17.74 0.33,-35.89 0.33,-53.84 3.85,-1.97 7.7,-3.93 11.56,-5.88 25.47,27.01 50.04,54.93 76.65,80.77 30.75,29.85 70.39,30.9 96.04,4.79 25.73,-26.19 23.48,-64.42 -7.1,-95.85 -25.71,-26.42 -52.74,-51.57 -88.17,-86.02 27.44,0 41.03,0.32 54.59,-0.06 49.9,-1.38 75.72,-23.23 75.97,-63.95 0.25,-39.29 -27.45,-63.81 -75.75,-65.19 -36.05,-1.03 -72.95,-5.13 -108.04,0.71 -95.57,15.92 -127.47,-61.62 -190.46,-115.71 107.72,0 201.78,1.02 295.81,-0.39 54.06,-0.81 89.23,-53.65 58.99,-91.97 -15.55,-19.71 -49.28,-33.93 -75.37,-34.88 -106.49,-3.85 -213.87,-8.98 -319.62,0.68 -86.22,7.89 -132.33,-36.38 -178.38,-94.73 179.1,-192.21 321.32,-406.48 422.2,-647.64 101.26,-242.02 156.08,-494.42 164.66,-755.07 103.3,-19.24 124.97,-12.69 192.56,54.09 76.96,76.04 154.02,151.97 231.36,227.64 37.77,36.95 73.37,39.96 102.23,9.75 26.39,-27.62 22.59,-64.99 -11.22,-99.2 -40.78,-41.26 -82.36,-81.73 -123.32,-122.81 -22.4,-22.47 -44.25,-45.49 -73.64,-75.8 41.77,0 71.58,2.51 100.79,-0.6 42.66,-4.54 74.69,8.46 102.66,41.58 27.21,32.22 58.7,61.02 89.75,89.75 32.58,30.15 70.25,31 95.95,3.27 28.93,-31.23 22.95,-62.33 -2.93,-92.24 -9.79,-11.32 -19.92,-22.35 -37.29,-41.8 43.67,0 77.39,0.81 111.04,-0.19 50.32,-1.47 81.46,-28.24 80.14,-67.27 -1.25,-36.82 -32.2,-60.95 -79.91,-61.52 -35.95,-0.43 -71.89,-0.08 -107.84,-0.08 7.78,-20.69 19.16,-29.25 28.86,-39.4 32.83,-34.31 35.93,-67.66 9.72,-95.43 -27.38,-29.02 -65.25,-27.48 -99.62,5.12 -25.02,23.73 -53.26,45.56 -72.72,73.38 -57.6,82.39 -138.29,50.96 -221.59,56.21 70.91,-71.32 134.2,-134.37 196.6,-198.28 11.69,-11.97 28.79,-28.14 27.7,-41.05 -2.02,-23.85 -9.45,-53.54 -25.86,-68.48 -26.75,-24.34 -59.04,-13.15 -83.98,11.49 -76.97,76.05 -158.86,147.97 -228.58,230.2 -55.86,65.89 -119.09,76.72 -199.98,61.42 -21.8,-540.86 -221.12,-1010.47 -593.35,-1412.67 14.53,-11.72 27.98,-18.78 36.12,-29.77 36.03,-48.62 82.95,-61.4 142.42,-59 111.15,4.48 222.62,1.6 333.95,1.12 47.45,-0.21 73.01,-21.1 75.46,-59.28 2.53,-39.43 -24.02,-66.81 -72.18,-68.6 -57.94,-2.16 -116.02,-0.7 -174.04,-0.77 -33.43,-0.04 -66.87,0 -111.14,0 59.64,-68.19 103.74,-133.76 198.78,-116.01 31.82,5.95 65.7,1.55 98.61,0.75 46.33,-1.12 70.89,-23.74 70.48,-63.46 -0.4,-39.25 -24.86,-60.33 -72.19,-61.75 -14.84,-0.45 -29.71,-0.07 -44.58,-0.07 -1.97,-3.79 -3.94,-7.58 -5.89,-11.38 25.91,-24.25 52.62,-47.71 77.51,-72.96 32.54,-33.01 35.8,-73.4 9.94,-100.04 -27.26,-28.1 -64.87,-26.19 -99.46,7.67 -25.27,24.74 -48.06,52.02 -71.96,78.15 -4.18,-2.56 -8.36,-5.12 -12.54,-7.69 0,-14.92 0.78,-29.89 -0.15,-44.76 -2.69,-42.58 -30.48,-71.84 -66.45,-70.88 -36.25,0.97 -62.21,30.23 -63.31,73.62 -1,39.17 -4.9,79.07 0.7,117.47 13.5,92.58 -65,118.52 -111.26,168.66 -4.72,-87.11 -4.52,-171.72 -4.78,-256.33 -0.19,-59.6 -22.72,-91.31 -64.45,-91.93 -42.35,-0.64 -65.26,30.62 -65.32,89.83 -0.13,120.73 0.36,241.48 -0.53,362.22 -0.12,16.16 -2.23,35.79 -11.37,47.73 -22.56,29.51 -49.74,55.5 -76.47,84.42 -408.05,-372.29 -882.37,-565.36 -1423.33,-589.4 -15,-81.52 -4.26,-144.21 63.44,-199.32 81.08,-65.99 150.98,-145.82 225,-220.36 34.61,-34.85 37.29,-71.44 9.67,-99.07 -26.46,-26.45 -67.4,-24.3 -100.28,7.61 -57.39,55.69 -113.57,112.63 -170.55,168.73 -8.05,7.93 -17.82,14.1 -25.89,20.4 -23.78,-99.82 -2.5,-181.1 82.78,-240.15 17.75,-12.29 32.14,-29.88 46.68,-46.27 25.45,-28.68 26.91,-59.62 1.7,-88.8 -22.82,-26.41 -62.94,-25.7 -92.51,-0.15 -13.08,11.31 -25.4,23.51 -44.67,41.46 0,-44.46 0.47,-77.32 -0.11,-110.15 -0.93,-52.42 -23.93,-80.59 -64.99,-80.8 -42.26,-0.2 -64.34,26.6 -64.89,79.52 -0.36,34.76 -0.07,69.52 -0.07,112.92 -18.58,-17.77 -28.59,-27.55 -38.82,-37.07 -32.76,-30.5 -74.66,-33.02 -100.1,-6.11 -26.93,28.48 -24.56,61.09 8.71,95.28 34.98,35.97 71.66,70.27 106.34,106.52 10.15,10.62 21.9,25.01 22.7,38.29 2.79,46.11 1.07,92.5 1.07,138.78 -3.76,2.17 -7.51,4.33 -11.27,6.5 -62.94,-64.81 -125.49,-130.02 -188.97,-194.29 -36,-36.45 -74.66,-40.43 -102.76,-12.81 -28.41,27.91 -24.32,65.98 12.13,102.42 76.5,76.51 148.96,157.92 231.57,227.19 64.98,54.49 65.04,116.8 55.48,189.83 -544.66,24.05 -1018.42,218.4 -1417.2,581.66 -77.41,-45.69 -103.09,-108.4 -96.75,-194.24 7.6,-102.93 2.52,-206.86 1.41,-310.34 -0.47,-43.6 -27.92,-71.98 -64.71,-71.99 -37.32,-0.01 -63.88,28 -64.77,71.59 -1.14,56.43 -0.3,112.9 -0.3,169.35 -0.01,36.37 -0.01,72.74 -0.01,109.12 -4.35,1.71 -8.72,3.42 -13.07,5.12 -19.89,-22.07 -37.53,-46.82 -60.17,-65.57 -33.19,-27.51 -46.01,-59.16 -42.67,-102.22 3.51,-45.17 2.47,-91.02 -0.74,-136.27 -2.65,-37.36 -25.93,-60.49 -64.36,-62.17 -34.67,-1.53 -61.79,28.43 -63.7,67.51 -0.87,17.71 -0.15,35.51 -0.15,53.25 -4.75,2.46 -9.51,4.89 -14.26,7.34 -11.24,-14.92 -21.66,-30.53 -33.91,-44.57 -12.34,-14.14 -26.12,-27.12 -39.93,-39.87 -35.67,-32.95 -71.56,-34.34 -99.07,-4.37 -26.31,28.67 -23.61,61.07 9.8,95.28 25.82,26.45 53.15,51.42 90.25,87.06 -33.85,0 -51.9,-0.32 -69.92,0.07 -39.72,0.84 -60.85,24 -65.1,60.86 -3.87,33.53 27.34,62.59 66.41,63.93 37.58,1.3 76.19,5.74 112.7,-0.61 95.43,-16.6 130.32,57.7 193.09,116.15 -101.35,0 -188.79,-0.77 -276.2,0.28 -56.4,0.67 -84.25,24.57 -83.06,67.46 1.14,41.45 26.99,60.84 82.82,60.96 109.76,0.24 220.04,6.59 329.13,-2.04 83.46,-6.59 123.64,41.18 169.57,95.87 -369.34,398.84 -564.79,868.73 -588.87,1406.21 -82.78,16.57 -149.21,4.97 -199.54,-64.04 -23.73,-32.53 -56.86,-58.22 -85.87,-86.85 -49.11,-48.45 -96.41,-99.02 -148.68,-143.79 -15.54,-13.32 -48.02,-18.77 -67.44,-12.19 -17.56,5.95 -38.29,33.01 -38.68,51.18 -0.47,21.23 15.54,46.68 31.45,63.72 60.47,64.78 123.77,126.89 192.88,196.97 -40.79,0 -73.22,-2.49 -105.11,0.63 -39.39,3.86 -68.15,-8.6 -94.2,-38.59 -30.76,-35.41 -65.09,-68.01 -100.07,-99.38 -28.24,-25.34 -61.15,-26.05 -88.72,0.8 -27.69,26.97 -27.24,58.25 -2.23,88.29 12.07,14.5 24.39,28.77 40.93,48.26 -42.13,0 -75.04,-0.22 -107.93,0.04 -51.02,0.4 -82.18,24.5 -82.28,63.23 -0.11,39.51 29.74,64.19 81.21,65.6 33.64,0.92 67.32,0.18 110.95,0.18 -18.86,20.44 -30.44,32.36 -41.31,44.9 -25.15,29 -27.49,59.42 -1.61,88.76 23.71,26.88 62.77,27.24 92.13,0.31 30.03,-27.54 61.85,-54.3 86.39,-86.38 57.45,-75.08 132.62,-40.09 212.96,-47.04 -71.52,71.68 -133.63,133.69 -195.44,195.98 -38.57,38.86 -43.05,72.21 -14.44,102.2 29.09,30.51 66.14,26.1 106.19,-13.49 75.84,-74.95 156.91,-145.55 225.31,-226.79 55.09,-65.42 118.59,-62.08 193.4,-55.14 24.23,541.45 221.78,1010.3 587.3,1405.42 -46.34,67.81 -99.53,109.05 -182.74,93.55 -25.76,-4.8 -53.17,-0.76 -79.83,-0.75 -79.97,0.02 -159.95,-1.04 -239.9,0.47 -52.5,1 -79.2,26.18 -77.7,67.92 1.39,38.71 26.46,60.04 73.9,60.34 92.96,0.58 185.92,0.17 278.88,0.17 1.94,4.13 3.88,8.27 5.81,12.4 -23.23,20.66 -49.1,39.07 -69.06,62.52 -26.81,31.5 -57.33,43.35 -98.39,40.58 -46.81,-3.16 -94.14,-2.39 -141.01,0.54 -37.35,2.33 -60.98,24.83 -62.86,63.54 -1.71,35.19 26.9,61.65 67.16,64.29 17.59,1.15 35.32,0.19 54.62,0.19 -2.62,8.3 -2.65,10.1 -3.56,11.02 -24.15,24.6 -48.67,48.84 -72.55,73.7 -34.74,36.14 -37.31,70.48 -8.08,98.67 26.49,25.54 66.92,21.63 100.13,-10.08 26.14,-24.94 51.9,-50.28 84.11,-81.53 0,23.84 -0.2,36.35 0.03,48.84 0.97,50.93 21.23,76.15 62.06,77.43 41.37,1.31 66.38,-27.06 67.6,-78.14 0.78,-32.91 5.17,-66.8 -0.78,-98.61 -18.31,-97.74 60.07,-131.72 116.01,-194.92 0,100.7 -0.16,188.47 0.05,276.23 0.15,57.3 21.34,85.03 64.34,85.21 41.83,0.18 65.51,-29.74 65.7,-85.01 0.36,-108.2 6.88,-216.95 -2.07,-324.41 -6.96,-83.61 39,-124.47 95.07,-168.08 404.48,366.49 877.96,561.37 1417.55,582.78 18.25,84.14 1.03,145.92 -63.5,200.82 -82.15,69.9 -155.28,150.52 -231.27,227.53 -28.1,28.49 -28.51,68.31 -2.51,92.08 28.67,26.21 59.42,25.25 88.98,0.82 12.05,-9.95 22.8,-21.5 33.74,-32.73 56.37,-57.92 112.6,-115.98 175.58,-180.88 10.88,99.94 17.47,184.3 -70.73,240.51 -18.09,11.53 -31.6,30.27 -47.04,45.89 -40.99,41.47 -45.81,75.47 -15.16,105.59 30,29.48 63.86,24.84 106.65,-14.1 8.21,-7.47 17.6,-13.67 30.87,-23.87 0,42.03 -0.41,76.51 0.1,110.96 0.69,46.09 26.59,76.63 64.33,76.9 37.63,0.27 64.2,-30.04 65.42,-76.51 0.92,-35.1 0.18,-70.23 0.18,-114.8 19.28,17.78 30.17,28.3 41.56,38.23 32.9,28.69 70.58,29.47 96.46,2.28 23.62,-24.83 21.63,-63.11 -6.34,-92.5 -25.93,-27.25 -50.25,-57.37 -80.46,-78.96 -79.42,-56.74 -43.73,-134.12 -43.72,-207.49 66.58,58.61 126,121.07 186.41,182.56 43.02,43.77 77.45,48.22 108.88,16.37 29.6,-29.97 24.3,-63.53 -17.34,-105.09 -73.26,-73.11 -142.4,-151.17 -221.52,-217.29 -65.41,-54.66 -73.79,-117.15 -58.49,-196.39 541.82,-21.94 1015.02,-218.03 1425.12,-590.11 12.83,17.32 20.67,34.5 33.92,44.54 42.74,32.38 56.69,72.77 52.95,126.14 -4.7,67.1 -1.13,134.79 -1.13,211.61z"/>
   </g>
   <path class="fil24" d="M3436.09 7681.13c-5.84,10.43 -11.69,20.85 -19.91,33.17 -79.78,-42.21 -157.99,-85.02 -233.91,-131.53 -14.73,-9.02 -31.43,-34.56 -28.75,-49.07 19.15,-104.04 -23.92,-165.67 -119.73,-202.37 -44.74,-17.14 -84.76,-46.66 -126.78,-70.79 -183.27,-105.18 -183.27,-105.69 -391.95,-97.77 -13.8,0.52 -33.46,13.68 -39.43,26.2 -32.79,68.79 -94.92,105.23 -162.07,90.75 -66,-14.23 -112.6,-71.65 -112,-137.99 0.62,-68.24 49.93,-124.41 119.35,-135.93 68.92,-11.45 127.67,25.88 155.69,98.83 1.66,4.32 3.81,8.45 8.33,18.36 50.4,0 103.43,3.96 155.64,-0.95 73.85,-6.94 136.17,14.78 198.24,53.19 99.4,61.5 202.57,116.89 313.03,179.92 0,-258.37 0,-509.21 0.13,-764.41 11.29,-3.07 22.43,-1.77 36.06,6.16 2.46,306.66 2.71,606.69 1.93,906.72 -0.07,25.83 5.48,42.27 30.2,55.5 72.87,39 144.09,81.12 215.96,122.02z"/>
   <path class="fil24" d="M3406.6 4363.72c11.06,7.06 18.79,15.82 24.7,29.44 -70.93,44.39 -139.48,84.95 -209.46,122.85 -23.81,12.89 -32.16,27.8 -32.06,54.96 1.12,304.92 0.87,609.84 0.99,914.78 -10.65,2.95 -21.28,5.9 -35.33,8.47 -3.4,-259.78 -3.4,-519.18 -3.4,-785.31 -17.06,8.7 -27.92,13.69 -38.24,19.6 -55.68,31.81 -114.26,59.61 -166.22,96.67 -128.59,91.73 -268.06,135.97 -426.21,113.92 -26.36,-3.68 -40.24,4.6 -50.9,32.88 -24.28,64.46 -90.93,97.03 -155.81,83.14 -67.65,-14.48 -113.37,-69.63 -113.13,-136.45 0.24,-66.12 47.65,-123.05 113.87,-136.7 63.36,-13.07 131.69,21.46 155.56,85.2 10.46,27.91 23.83,37.18 50.64,33.4 1.54,-0.22 3.16,-0.2 4.69,-0.01 142.79,18.6 269.93,-16.81 387.51,-100.9 65.82,-47.09 141.02,-80.9 210.16,-123.65 13.57,-8.39 28.61,-32.06 26.22,-45.75 -16.57,-94.8 21.96,-150.59 110,-184.62 50.49,-19.52 95.57,-53.02 146.42,-81.91z"/>
   <path class="fil25" d="M8495.27 7351.04c119.85,-67.5 238.97,-136.37 360.1,-201.48 28.63,-15.38 63.77,-23.65 96.45,-25.47 68.65,-3.8 137.64,-1.15 205.53,-1.15 48.46,-99.75 101.53,-133.27 179.39,-114.66 62.86,15.03 109.03,73.87 107.48,137 -1.61,65.43 -51.28,123.1 -116.44,135.18 -73.07,13.56 -127.96,-24.46 -169.27,-118.76 -75.75,0 -152.47,-1.12 -229.12,0.85 -17.47,0.46 -36,9.26 -51.79,18.19 -125.3,70.76 -250.04,142.49 -378.28,210.6 -3.56,-15.63 -3.81,-27.97 -4.06,-40.3z"/>
   <path class="fil26" d="M8509.53 4673.88c119.73,67.58 238.84,136.28 359.66,201.84 26,14.1 57.9,22.17 87.56,23.7 67.09,3.45 134.49,1.08 200.86,1.08 45.16,-96.8 100.71,-134.21 173.55,-118.16 65.32,14.39 113.63,73.34 113.04,137.93 -0.6,65.57 -48.38,121.59 -115.36,135.26 -74.48,15.21 -128.91,-21.58 -169.8,-116.44 -14.54,0 -30.34,-1.82 -45.62,0.28 -149.88,20.52 -281.7,-20.71 -404.33,-107.42 -64.77,-45.8 -137.8,-79.93 -210.14,-123.71 1.5,-14.38 6.04,-24.38 10.58,-34.38z"/>
   <path class="fil24" d="M2721.17 5642.72c4.07,10.67 4.08,20.39 4.09,33.06 -68.77,3.64 -137.54,5.26 -206.3,4.47 -24.88,-0.28 -37.57,5.02 -47.64,31.38 -25.41,66.55 -89.67,97.99 -159.55,84.46 -61.93,-12.01 -109.46,-69.76 -110.23,-133.98 -0.79,-65.86 47.24,-125.48 111.38,-138.25 67.72,-13.47 133,19.46 158.88,86.4 10.25,26.51 23.82,31.52 48.29,31.18 65.66,-0.9 131.35,0.08 201.08,1.27z"/>
   <path class="fil27" d="M8924.84 6420.98c-4.45,-11.08 -4.61,-21.92 -4.55,-36.05 79.99,-3.28 159.76,-3.28 240.11,-3.28 21.89,-66.92 59.91,-112.88 132.47,-117.83 74.37,-5.06 134.1,41.62 148.65,115.07 12.83,64.85 -28.23,132.36 -94.01,154.54 -66.24,22.32 -143.36,-6.64 -169.58,-71.47 -14,-34.63 -31.51,-42.77 -65.45,-41.34 -61.01,2.6 -122.2,0.64 -187.62,0.35z"/>
   <path class="fil28" d="M2721.15 6382.76c4.15,10.57 4.23,20.36 4.17,33.01 -68.87,3.79 -137.58,5.64 -206.29,5.15 -25.1,-0.18 -37.5,6.25 -47.57,32.11 -25.82,66.25 -91.51,98.68 -159.68,84.92 -62.03,-12.52 -109.49,-70.33 -110.27,-134.33 -0.78,-64 45.42,-123.42 106.59,-137.08 70.41,-15.73 137.67,16.43 163.57,84.83 10.35,27.35 24.56,30.59 48.38,30.31 65.66,-0.76 131.34,0.08 201.09,1.08z"/>
   <path class="fil27" d="M8924.8 5680.63c-4.51,-10.93 -4.73,-21.73 -4.6,-35.75 69.32,-3.42 138.3,-4.58 207.23,-3.3 23.61,0.44 35.49,-6.22 45.1,-29.15 29.41,-70.17 93.63,-103.42 162.29,-87.98 61.69,13.88 109.57,73.52 109.41,136.31 -0.16,63.66 -47.95,122.29 -110.12,135.1 -73.02,15.05 -133.54,-18.93 -164.3,-92.21 -2.95,-7.03 -6.09,-13.97 -10.01,-22.93 -77.33,0 -154.01,0 -235,-0.1z"/>
   <path class="fil29" d="M8494.83 7346.44c0.69,16.94 0.94,29.27 1.17,45.31 -0.59,48.93 -3,94.22 -1.08,139.34 1.17,27.53 -9.38,41.74 -32.75,54.58 -75.05,41.24 -148.77,84.91 -226.01,128.93 -10.01,-8.66 -17.02,-18.61 -21.67,-33.18 68.87,-42.62 134.83,-81.66 202.19,-118.08 26.34,-14.24 37.35,-30.48 37.2,-61.99 -1.38,-291.23 -0.77,-582.48 -0.98,-873.73 0,-12.36 -2.31,-24.72 -3.54,-37.08 12.92,-3.4 25.85,-6.79 41.6,-10.12 3.04,253.85 3.24,507.63 3.87,766.01z"/>
   <path class="fil30" d="M8506.85 4670.81c-1.86,13.06 -6.4,23.06 -11.23,36.62 -0.71,261.15 -1.13,518.75 -1.7,780.51 -11.72,1.85 -23.29,-0.5 -37.86,-7.76 -3,-303.75 -3.45,-602.57 -2.34,-901.4 0.11,-31.83 -8.3,-50.73 -37.62,-66.38 -70.22,-37.45 -138.19,-79.14 -207.06,-119.11 5.95,-10.32 11.92,-20.62 20.33,-32.51 79.39,42.42 155.94,87.12 233.5,129.98 23,12.71 32.51,27.41 32.31,54.66 -0.31,40.74 5.68,81.54 11.67,125.39z"/>
   <path class="fil31" d="M6361.43 3340.9c-3.41,-16.4 -6.81,-32.8 -10.04,-52.82 305,170.73 609.81,345.08 917.23,521.18 -9.33,10.36 -21.24,18.96 -38.06,25.7 -292.98,-165.92 -581.06,-330 -869.13,-494.07z"/>
   <path class="fil31" d="M6356.33 8788.84c0.22,-16.27 3.56,-33.49 11.41,-54.61 292.59,-168.03 580.68,-332.16 868.78,-496.29 11.47,7.12 22.93,14.23 36.12,23.5 -303.25,176.93 -608.22,351.69 -916.3,527.4z"/>
   <path class="fil32" d="M5282.85 8731.72c3.99,18.29 7.96,36.58 11.96,57.96 -305.13,-171.12 -610.26,-345.34 -918.62,-521.13 7.94,-10.1 19.09,-18.62 36.32,-26.59 284.16,159.66 562.23,318.81 840.42,477.72 9.25,5.28 19.92,8.09 29.92,12.05z"/>
   <path class="fil33" d="M5284.56 3289.17c1.05,15.18 -1.13,31.83 -8.16,52.9 -292.07,168.84 -579.28,333.27 -866.49,497.69 -12.86,-7.61 -25.72,-15.22 -40.15,-25.09 302.8,-176.16 607.19,-350.09 914.8,-525.5z"/>
   <path class="fil34" d="M3644.62 8922.89c4.63,-0.73 9.76,-0.42 13.83,-2.35 87.16,-41.23 161.65,-17.15 236.84,35.93 65.82,46.45 139.16,82.23 214.31,125.69 -42.46,82.42 -86.35,167.64 -131.41,255.12 -18.02,-9.16 -31.54,-16.04 -50.68,-25.76 37.7,-73.64 74.35,-145.23 111.35,-217.52 -33.2,-18.82 -64.04,-36.3 -98.3,-55.7 -42.45,70.12 -83.54,137.99 -127.23,210.14 -15.2,-8.31 -29.37,-16.06 -49.56,-27.1 42.55,-71.57 83.67,-140.74 124.16,-208.84 -31.69,-25.3 -60.91,-48.62 -97.22,-77.62 -34.94,9.39 -83,22.3 -135.01,36.29 8.49,64.66 16.67,127.05 25.87,197.25 -98.18,-39.89 -51.22,-130.27 -87.84,-192.48 -21.17,29.37 -42.39,58.79 -66.71,92.5 -14.61,-9.33 -28.03,-17.9 -44.77,-28.59 55.22,-80.6 108.11,-157.81 164.09,-239.52 15.58,9.62 29.31,18.1 45.51,28.11 -18.95,28.62 -36.1,54.54 -56.19,85.38 1.03,6.31 4.99,7.7 8.96,9.09z"/>
   <g>
    <path class="fil35" d="M5271.09 9655.78c-6.07,26.53 0.33,39.54 25.59,41.88 35.59,3.29 70.98,8.59 109.82,13.45 35.61,-68.14 70.48,-137.9 108.82,-205.71 8,-14.16 29.54,-29.97 43.46,-28.78 13.33,1.14 30.92,21.33 36.16,36.72 28.6,83.97 53.96,169.04 81.13,255.93 -39.15,12.27 -62.93,6.26 -70.67,-35.24 -4.68,-25.15 -13.26,-47.76 -48.01,-44.03 -36.23,3.89 -82.81,-26.08 -99.69,34.35 -7.52,26.91 -25.04,35.23 -53.26,30.98 -64.77,-9.73 -129.96,-16.68 -199.94,-25.37 12.32,-97.11 24.22,-190.89 36.67,-288.98 60.05,7.12 116.81,13.84 173.06,20.51 12.4,49.3 -18.32,42.56 -44.81,39.96 -24.5,-2.41 -48.9,-5.82 -77.51,-9.29 -2.39,25.62 -4.36,46.92 -6.59,70.81 32.96,5.48 63.25,10.53 96.53,16.07 -0.84,13.52 -1.56,25.17 -2.5,40.18 -33.1,-2.52 -63.78,-4.84 -97.77,-7.43 -3.29,13.3 -6.56,26.59 -10.48,43.98l0 0zm237.54 -15.16c20.71,1.15 41.44,2.3 68.65,3.81 -11.19,-32.71 -19.67,-57.51 -31.36,-91.72 -16.37,33.52 -27.92,57.19 -37.28,87.91z"/>
   </g>
   <path class="fil36" d="M6878.65 9586.01c-23.06,-76.73 -45.22,-149.85 -67.76,-224.18 27.46,-23.28 50.71,-22.13 77.8,1.26 45.86,39.61 94.4,76.13 151.08,109.11 -16.1,-55.38 -32.19,-110.77 -49.28,-169.56 15.93,-4.92 29.9,-9.25 47.87,-14.81 28.64,93.69 56.29,184.14 83.72,273.86 -30.71,23.9 -54.9,17.99 -81.17,-4.65 -44.79,-38.59 -92.02,-74.35 -148.35,-106.4 16.17,55.19 32.33,110.37 49.37,168.53 -15.3,5.24 -29.25,10.03 -45.94,15.75 -6.08,-16.77 -11.27,-31.03 -17.34,-48.91z"/>
   <g>
    <path class="fil37" d="M7394.92 9363.67c-1.11,79.92 -35.04,127.42 -102.66,148.04 -64.15,19.55 -123.44,-0.9 -160.26,-55.27 -42.61,-62.92 -44.89,-139.13 -5.61,-188.31 38.26,-47.91 114.64,-69.83 169.6,-47.12 61.47,25.4 86.58,77.64 98.94,142.67l0 0zm-219.27 49.68c19.69,36.25 46.86,69.97 90.54,56.75 26.88,-8.13 55.49,-34.39 68.11,-60.01 18.04,-36.63 -12.76,-115.85 -52.04,-134.79 -24.22,-11.69 -58.05,-7.62 -86.7,-3.96 -11.85,1.51 -29.94,20.09 -30.48,31.59 -1.64,34.51 4,69.36 10.58,110.4z"/>
   </g>
   <g>
    <path class="fil35" d="M5153.76 9556.67c-14.04,10.03 -25.46,17.72 -37.4,25.78 20.9,46.51 40.98,91.17 62.93,140.01 -43.67,3.11 -68.67,-6.2 -81.71,-44.98 -11.67,-34.71 -31.08,-66.8 -47.09,-100.05 -5.83,1.5 -11.67,3 -17.5,4.49 -8.56,35.39 -17.11,70.78 -26.73,110.53 -17.36,-2.89 -33.55,-5.57 -54.75,-9.1 19.29,-96.19 37.86,-188.79 57.41,-286.22 36.36,7.21 69.95,12.26 102.68,20.69 76.5,19.72 92.97,71.32 42.16,138.84l0 0zm-95.67 -17.36c35.02,3.43 67.37,-6.4 65.06,-45.54 -2.12,-35.95 -35.18,-39.6 -72.72,-36.6 0,28.06 0,54.25 7.66,82.14z"/>
   </g>
   <g>
    <path class="fil35" d="M3507.74 8870.63c-16.04,52.55 -31.06,101.45 -46.29,151.02 -41.27,-13.6 -55.46,-35.3 -37.22,-72.23 13.06,-26.45 8.53,-47.58 -18.78,-62.04 -29.61,-15.7 -48.94,-64.14 -94.67,-27.4 -24.85,19.97 -50.42,25.43 -72.06,-14.83 17.22,-10.48 34.61,-21.92 52.77,-31.94 64.4,-35.57 128.53,-71.67 194.12,-104.92 11.6,-5.88 34.15,-4.4 43.45,3.42 9.48,7.97 14.37,29.12 11.58,42.48 -7.99,38.15 -20.88,75.28 -32.88,116.46l0 0zm-53.43 -24.61c6.49,-21.84 12.98,-43.68 22.89,-77.04 -35.17,19.33 -58.97,32.4 -95.03,52.23 30.58,13.63 50.52,22.52 72.14,24.81z"/>
   </g>
   <g>
    <path class="fil35" d="M7670.27 9255.15c-8.22,-72.29 -16.3,-140.45 -23.44,-208.69 -3.2,-30.52 28.39,-59.19 49.38,-43.51 79.45,59.31 156.69,121.58 235.45,183.29 -28.27,33.98 -53.13,38.08 -80.74,8.36 -19.04,-20.49 -39.86,-27.34 -64.86,-7.43 -26.63,21.19 -75.75,22.32 -62.16,77.33 7.82,31.66 3.53,59.52 -42.35,59.16 -3.67,-22.01 -7.21,-43.21 -11.28,-68.5l0 0zm34.72 -148.65c3,21.89 5.98,43.79 9.62,70.42 24.24,-14.07 42.13,-24.46 73.85,-42.88 -35.98,-15.13 -59.8,-25.16 -83.47,-27.55z"/>
   </g>
   <path class="fil35" d="M4805.4 9422.76c-3.42,13.94 -5.79,24.35 -8.35,35.57 64.29,-8.45 97.06,-99.44 185.74,-60.1 -52.96,36.08 -98.73,67.26 -148.08,100.88 29.07,56.66 57.87,112.76 90.2,175.77 -109.4,-2.4 -89.1,-110.84 -146.87,-151.99 -9.94,33.74 -20.38,69.21 -31.88,108.31 -17.49,-4.19 -33.24,-7.99 -52.33,-12.58 26.13,-93.96 51.18,-183.97 77.39,-278.2 16.4,2.82 30.92,5.31 51,8.76 -5.8,25.78 -10.8,47.91 -16.82,73.59z"/>
   <path class="fil37" d="M7386.48 9247.44c-22.51,-21.01 -42.53,-39.8 -62.95,-58.99 26.82,-30.97 48.04,-29.57 73.56,-4.76 42.37,41.19 87.27,79.78 140.97,128.4 -5.71,-70.27 -8.23,-129.73 -16.23,-188.43 -4.62,-33.87 4.22,-50.46 44.84,-53.31 3.72,38.44 7.45,76.6 11.09,114.77 4.88,51.31 11.44,102.54 13.43,153.96 0.58,14.99 -8.24,38.09 -19.52,43.62 -11.45,5.59 -35.22,-1.23 -46.72,-10.84 -46.75,-39.01 -90.87,-81.18 -138.46,-124.42z"/>
   <path class="fil37" d="M6130.71 9514.77c-6.6,24.81 -9.11,48.87 -11.57,72.44 41.23,2.87 73.06,4.45 104.55,8.62 2.17,0.29 1.78,19.84 2.9,34.52 -34.34,2.73 -66.37,5.27 -100.85,8.01 3.09,42.92 5.86,81.52 8.95,124.48 -19.47,1.35 -35.73,2.48 -57.1,3.95 -7.48,-97.52 -14.71,-191.81 -22.23,-289.95 61.12,-4.92 116.74,-9.41 176.93,-14.25 1.63,15.82 2.95,28.47 4.64,44.86 -36.98,2.38 -69.56,4.48 -106.23,7.33z"/>
   <path class="fil34" d="M4110.35 9199.5c16.13,-33.72 30.91,-64.17 47.43,-98.2 54.97,25.69 105.45,49.29 155.65,72.77 -10.49,44.07 -10.53,44.14 -49.69,26.28 -22.63,-10.32 -45.14,-20.89 -72.45,-33.56 -11.71,23.13 -22.49,44.46 -34.18,67.54 30.62,15.58 58.16,29.59 89.37,45.47 -5.99,13.26 -11.25,24.87 -17.22,38.08 -31.81,-13.92 -59.97,-26.25 -91.78,-40.17 -18.25,36.86 -35.3,71.3 -54.01,109.12 -17.48,-7.21 -32.46,-13.38 -52.33,-21.56 26.93,-56.2 52.39,-109.36 79.2,-165.77z"/>
   <path class="fil35" d="M8243.58 8938.16c-54.78,-68.35 -107.41,-133.98 -161.97,-202.01 46.85,-37.04 90.81,-71.79 137.85,-108.99 9.54,10.61 18.23,20.27 29.58,32.89 -32.48,26.27 -62.37,50.45 -94.11,76.12 16.3,20.2 30.74,38.09 47.5,58.87 27.21,-20.21 51.82,-38.49 79.36,-58.94 9.38,10.47 17.9,19.98 28.45,31.74 -26.56,21.8 -50.44,41.41 -77.38,63.52 24.95,32.46 49.26,64.1 76.16,99.1 -22.21,10.9 -34.37,50.33 -65.44,7.7z"/>
   <path class="fil37" d="M8006.06 8825.14c-9.53,13.8 -17.23,29.52 -29.08,40.91 -13.18,12.65 -30.16,21.37 -49.77,34.72 45,68.53 89.02,135.52 135.08,205.65 -15.97,10.95 -29.46,20.2 -46.38,31.8 -45.77,-68.37 -89.8,-134.15 -136.85,-204.44 -28.45,17.29 -55.71,33.88 -86.26,52.46 -7.71,-10.16 -15.67,-20.62 -26.3,-34.61 70.44,-46.15 137.84,-90.86 206.23,-134.02 5.59,-3.53 17.92,3.64 30.42,6.78 3.3,0.96 2.92,0.75 2.92,0.75z"/>
   <path class="fil38" d="M5870.06 9483.46c23.18,0.05 41.77,0.05 64.38,0.05 0.73,14.9 1.36,27.59 2.15,43.58 -34.45,0 -65.24,0 -102.86,0 0,82.9 0,163.06 0,245.39 -21.8,0 -36.78,0 -56.68,0 0,-79.9 0,-160.17 0,-243.24 -35.28,-2.2 -65.99,-4.11 -97.91,-6.1 -12.96,-29.03 -7.42,-42.61 27.1,-41.36 53.04,1.92 106.16,1.22 163.83,1.69z"/>
   <path class="fil39" d="M6004.23 9485.31c2.42,95.04 2.42,187.04 2.42,284.74 -7.88,0.7 -24.15,2.15 -49.04,4.36 0,-98.63 0,-193.14 0,-292.15 11.34,0 27.78,0 46.62,3.05z"/>
   <path class="fil37" d="M6826.13 9610.81c17.14,50.64 -18.02,44.47 -46.54,50.41 -23.37,-92.94 -46.18,-183.7 -70.24,-279.42 16.17,-4.81 31.93,-9.5 54.7,-16.27 20.67,82.23 40.71,161.9 62.08,245.28z"/>
   <path class="fil35" d="M8006.54 8825.54c7.86,-20.28 15.61,-40.74 23.36,-61.2 5.6,0.23 11.22,0.45 16.82,0.67 55.52,76.85 111.04,153.7 169.04,233.98 -14.1,10.98 -27.09,21.06 -43.39,33.75 -54.3,-71.89 -107.52,-142.32 -163.52,-210.18 -2.8,2.58 -2.42,2.79 -2.32,2.98z"/>
   <path class="fil40" d="M6392.86 9614.17c6.56,-9.43 13.25,-18.95 21.55,-20.64 45.73,-9.39 91.69,-18.42 138,-23.84 10.95,-1.27 23.58,11.83 35.44,18.31 -1.94,4.69 -3.88,9.39 -5.82,14.07 -54.84,9.99 -109.59,20.61 -164.66,29.14 -7.01,1.09 -15.71,-8.74 -24.51,-17.04z"/>
   <path class="fil41" d="M4390.58 9374.88c53.86,16.23 105.14,33.4 155.47,52.99 7.73,3.01 11.14,17.17 16.54,26.17 -10.2,2.96 -22.03,10.81 -30.33,8.04 -45.52,-15.12 -90.73,-31.64 -134.61,-50.94 -7.03,-3.1 -6.83,-22.61 -7.07,-36.26z"/>
   <g>
    <path class="fil42" d="M7404.31 7978.39c0,-72.12 -3.58,-139.81 1.13,-206.91 3.75,-53.36 -10.21,-93.76 -52.95,-126.14 -13.24,-10.04 -21.08,-27.22 -33.92,-44.54 -410.1,372.07 -883.3,568.16 -1425.12,590.11 -15.3,79.24 -6.92,141.73 58.49,196.39 79.12,66.12 148.26,144.18 221.52,217.29 41.64,41.56 46.94,75.12 17.34,105.09 -31.43,31.85 -65.86,27.4 -108.88,-16.37 -60.42,-61.48 -119.83,-123.95 -186.41,-182.56 -0.01,73.37 -35.71,150.75 43.72,207.49 30.21,21.59 54.53,51.72 80.46,78.96 27.98,29.38 29.96,67.67 6.34,92.5 -25.88,27.2 -63.56,26.42 -96.46,-2.28 -11.39,-9.94 -22.28,-20.45 -41.56,-38.23 0,44.57 0.74,79.7 -0.18,114.8 -1.22,46.46 -27.79,76.78 -65.42,76.51 -37.74,-0.27 -63.64,-30.8 -64.33,-76.9 -0.51,-34.46 -0.1,-68.94 -0.1,-110.96 -13.27,10.2 -22.66,16.4 -30.87,23.87 -42.79,38.94 -76.65,43.59 -106.65,14.1 -30.65,-30.12 -25.83,-64.12 15.16,-105.59 15.44,-15.62 28.95,-34.37 47.04,-45.89 88.2,-56.2 81.61,-140.57 70.73,-240.51 -62.97,64.9 -119.2,122.96 -175.58,180.88 -10.94,11.23 -21.69,22.78 -33.74,32.73 -29.56,24.43 -60.31,25.39 -88.98,-0.82 -26,-23.77 -25.59,-63.59 2.51,-92.08 75.99,-77.02 149.12,-157.63 231.27,-227.53 64.53,-54.9 81.75,-116.69 63.5,-200.82 -539.59,-21.4 -1013.07,-216.29 -1417.55,-582.78 -56.07,43.62 -102.04,84.48 -95.07,168.08 8.95,107.46 2.43,216.22 2.07,324.41 -0.19,55.26 -23.87,85.19 -65.7,85.01 -43,-0.18 -64.19,-27.91 -64.34,-85.21 -0.21,-87.76 -0.05,-175.54 -0.05,-276.23 -55.94,63.2 -134.32,97.18 -116.01,194.92 5.95,31.81 1.56,65.7 0.78,98.61 -1.22,51.09 -26.23,79.45 -67.6,78.14 -40.83,-1.28 -61.1,-26.5 -62.06,-77.43 -0.23,-12.49 -0.03,-25 -0.03,-48.84 -32.21,31.25 -57.97,56.59 -84.11,81.53 -33.21,31.71 -73.64,35.62 -100.13,10.08 -29.23,-28.19 -26.66,-62.53 8.08,-98.67 23.88,-24.86 48.4,-49.1 72.55,-73.7 0.91,-0.92 0.94,-2.72 3.56,-11.02 -19.31,0 -37.03,0.96 -54.62,-0.19 -40.26,-2.64 -68.87,-29.1 -67.16,-64.29 1.89,-38.71 25.51,-61.22 62.86,-63.54 46.86,-2.93 94.19,-3.7 141.01,-0.54 41.06,2.77 71.58,-9.08 98.39,-40.58 19.96,-23.45 45.82,-41.86 69.06,-62.52 -1.94,-4.13 -3.88,-8.27 -5.81,-12.4 -92.96,0 -185.92,0.41 -278.88,-0.17 -47.44,-0.3 -72.51,-21.62 -73.9,-60.34 -1.5,-41.74 25.21,-66.92 77.7,-67.92 79.94,-1.51 159.92,-0.45 239.9,-0.47 26.66,-0.01 54.07,-4.06 79.83,0.75 83.21,15.5 136.39,-25.74 182.74,-93.55 -365.52,-395.12 -563.07,-863.97 -587.3,-1405.42 -74.81,-6.94 -138.31,-10.28 -193.4,55.14 -68.41,81.24 -149.48,151.84 -225.31,226.79 -40.05,39.59 -77.1,44.01 -106.19,13.49 -28.6,-29.99 -24.13,-63.34 14.44,-102.2 61.81,-62.29 123.92,-124.3 195.44,-195.98 -80.34,6.95 -155.51,-28.04 -212.96,47.04 -24.54,32.08 -56.36,58.85 -86.39,86.38 -29.35,26.93 -68.42,26.57 -92.13,-0.31 -25.88,-29.34 -23.54,-59.76 1.61,-88.76 10.87,-12.53 22.45,-24.45 41.31,-44.9 -43.64,0 -77.32,0.74 -110.95,-0.18 -51.47,-1.41 -81.32,-26.09 -81.21,-65.6 0.1,-38.73 31.26,-62.83 82.28,-63.23 32.89,-0.26 65.8,-0.04 107.93,-0.04 -16.54,-19.49 -28.86,-33.76 -40.93,-48.26 -25.01,-30.04 -25.46,-61.32 2.23,-88.29 27.58,-26.85 60.49,-26.14 88.72,-0.8 34.98,31.37 69.31,63.97 100.07,99.38 26.06,29.99 54.81,42.45 94.2,38.59 31.89,-3.12 64.32,-0.63 105.11,-0.63 -69.12,-70.07 -132.42,-132.19 -192.88,-196.97 -15.91,-17.04 -31.92,-42.49 -31.45,-63.72 0.39,-18.17 21.12,-45.22 38.68,-51.18 19.42,-6.58 51.9,-1.14 67.44,12.19 52.27,44.78 99.57,95.34 148.68,143.79 29.01,28.63 62.14,54.32 85.87,86.85 50.33,69.02 116.76,80.61 199.54,64.04 24.08,-537.48 219.53,-1007.37 588.87,-1406.21 -45.93,-54.69 -86.11,-102.46 -169.57,-95.87 -109.09,8.63 -219.37,2.28 -329.13,2.04 -55.83,-0.12 -81.68,-19.51 -82.82,-60.96 -1.19,-42.89 26.66,-66.79 83.06,-67.46 87.41,-1.05 174.86,-0.28 276.2,-0.28 -62.77,-58.45 -97.66,-132.75 -193.09,-116.15 -36.52,6.35 -75.12,1.91 -112.7,0.61 -39.07,-1.34 -70.27,-30.4 -66.41,-63.93 4.25,-36.85 25.38,-60.02 65.1,-60.86 18.03,-0.39 36.08,-0.07 69.92,-0.07 -37.09,-35.65 -64.43,-60.62 -90.25,-87.06 -33.41,-34.22 -36.11,-66.61 -9.8,-95.28 27.51,-29.96 63.4,-28.58 99.07,4.37 13.81,12.75 27.59,25.73 39.93,39.87 12.25,14.03 22.67,29.64 33.91,44.57 4.75,-2.45 9.51,-4.88 14.26,-7.34 0,-17.75 -0.72,-35.55 0.15,-53.25 1.91,-39.08 29.03,-69.04 63.7,-67.51 38.43,1.69 61.71,24.81 64.36,62.17 3.21,45.25 4.24,91.1 0.74,136.27 -3.35,43.07 9.48,74.72 42.67,102.22 22.63,18.75 40.28,43.5 60.17,65.57 4.35,-1.71 8.72,-3.42 13.07,-5.12 0,-36.38 0,-72.75 0.01,-109.12 0,-56.45 -0.84,-112.92 0.3,-169.35 0.89,-43.6 27.45,-71.6 64.77,-71.59 36.79,0.01 64.24,28.4 64.71,71.99 1.11,103.48 6.19,207.41 -1.41,310.34 -6.34,85.84 19.35,148.55 96.75,194.24 398.77,-363.26 872.53,-557.61 1417.2,-581.66 9.56,-73.03 9.5,-135.33 -55.48,-189.83 -82.61,-69.28 -155.07,-150.69 -231.57,-227.19 -36.45,-36.45 -40.53,-74.52 -12.13,-102.42 28.11,-27.62 66.77,-23.63 102.76,12.81 63.48,64.27 126.03,129.48 188.97,194.29 3.76,-2.17 7.51,-4.33 11.27,-6.5 0,-46.28 1.72,-92.67 -1.07,-138.78 -0.8,-13.28 -12.55,-27.68 -22.7,-38.29 -34.68,-36.25 -71.36,-70.55 -106.34,-106.52 -33.27,-34.2 -35.64,-66.81 -8.71,-95.28 25.44,-26.91 67.34,-24.39 100.1,6.11 10.24,9.53 20.25,19.31 38.82,37.07 0,-43.4 -0.29,-78.16 0.07,-112.92 0.55,-52.93 22.63,-79.72 64.89,-79.52 41.06,0.21 64.06,28.39 64.99,80.8 0.58,32.83 0.11,65.69 0.11,110.15 19.27,-17.95 31.58,-30.15 44.67,-41.46 29.56,-25.55 69.68,-26.26 92.51,0.15 25.21,29.18 23.75,60.12 -1.7,88.8 -14.54,16.39 -28.93,33.98 -46.68,46.27 -85.28,59.05 -106.56,140.33 -82.78,240.15 8.07,-6.29 17.84,-12.46 25.89,-20.4 56.98,-56.1 113.16,-113.04 170.55,-168.73 32.88,-31.91 73.82,-34.06 100.28,-7.61 27.63,27.63 24.94,64.22 -9.67,99.07 -74.03,74.54 -143.92,154.37 -225,220.36 -67.71,55.1 -78.44,117.8 -63.44,199.32 540.96,24.04 1015.28,217.1 1423.33,589.4 26.73,-28.91 53.9,-54.9 76.47,-84.42 9.14,-11.95 11.25,-31.57 11.37,-47.73 0.89,-120.73 0.4,-241.48 0.53,-362.22 0.06,-59.21 22.97,-90.47 65.32,-89.83 41.73,0.62 64.26,32.33 64.45,91.93 0.26,84.61 0.06,169.21 4.78,256.33 46.26,-50.14 124.77,-76.09 111.26,-168.66 -5.6,-38.39 -1.7,-78.29 -0.7,-117.47 1.1,-43.39 27.07,-72.65 63.31,-73.62 35.97,-0.96 63.76,28.31 66.45,70.88 0.93,14.86 0.15,29.83 0.15,44.76 4.18,2.57 8.36,5.13 12.54,7.69 23.9,-26.14 46.69,-53.41 71.96,-78.15 34.59,-33.86 72.2,-35.77 99.46,-7.67 25.86,26.64 22.6,67.03 -9.94,100.04 -24.89,25.25 -51.6,48.71 -77.51,72.96 1.96,3.8 3.93,7.59 5.89,11.38 14.86,0 29.73,-0.38 44.58,0.07 47.33,1.43 71.79,22.5 72.19,61.75 0.41,39.72 -24.15,62.34 -70.48,63.46 -32.91,0.8 -66.79,5.2 -98.61,-0.75 -95.03,-17.75 -139.14,47.82 -198.78,116.01 44.28,0 77.71,-0.04 111.14,0 58.02,0.07 116.1,-1.39 174.04,0.77 48.16,1.79 74.71,29.16 72.18,68.6 -2.45,38.17 -28.01,59.07 -75.46,59.28 -111.33,0.48 -222.8,3.37 -333.95,-1.12 -59.47,-2.41 -106.39,10.38 -142.42,59 -8.14,11 -21.58,18.06 -36.12,29.77 372.23,402.2 571.55,871.81 593.35,1412.67 80.88,15.29 144.11,4.46 199.98,-61.42 69.72,-82.23 151.61,-154.15 228.58,-230.2 24.94,-24.64 57.23,-35.83 83.98,-11.49 16.41,14.93 23.84,44.63 25.86,68.48 1.1,12.91 -16.01,29.08 -27.7,41.05 -62.4,63.91 -125.69,126.95 -196.6,198.28 83.3,-5.25 163.99,26.18 221.59,-56.21 19.46,-27.82 47.7,-49.65 72.72,-73.38 34.37,-32.6 72.24,-34.15 99.62,-5.12 26.21,27.78 23.11,61.13 -9.72,95.43 -9.71,10.15 -21.08,18.71 -28.86,39.4 35.95,0 71.89,-0.35 107.84,0.08 47.71,0.58 78.66,24.7 79.91,61.52 1.32,39.03 -29.82,65.8 -80.14,67.27 -33.66,1 -67.38,0.19 -111.04,0.19 17.38,19.45 27.51,30.48 37.29,41.8 25.88,29.9 31.86,61.01 2.93,92.24 -25.7,27.74 -63.37,26.89 -95.95,-3.27 -31.05,-28.73 -62.54,-57.53 -89.75,-89.75 -27.98,-33.12 -60.01,-46.12 -102.66,-41.58 -29.2,3.11 -59.02,0.6 -100.79,0.6 29.39,30.3 51.24,53.32 73.64,75.8 40.96,41.08 82.54,81.55 123.32,122.81 33.81,34.21 37.6,71.58 11.22,99.2 -28.86,30.21 -64.46,27.21 -102.23,-9.75 -77.34,-75.67 -154.4,-151.6 -231.36,-227.64 -67.6,-66.79 -89.26,-73.33 -192.56,-54.09 -8.58,260.64 -63.4,513.04 -164.66,755.07 -100.89,241.15 -243.1,455.42 -422.2,647.64 46.05,58.36 92.16,102.62 178.38,94.73 105.75,-9.66 213.13,-4.52 319.62,-0.68 26.09,0.95 59.82,15.17 75.37,34.88 30.24,38.31 -4.92,91.16 -58.99,91.97 -94.02,1.41 -188.09,0.39 -295.81,0.39 62.98,54.08 94.88,131.63 190.46,115.71 35.09,-5.84 71.99,-1.74 108.04,-0.71 48.3,1.38 76,25.9 75.75,65.19 -0.25,40.72 -26.07,62.57 -75.97,63.95 -13.56,0.38 -27.16,0.06 -54.59,0.06 35.44,34.46 62.46,59.61 88.17,86.02 30.58,31.43 32.83,69.66 7.1,95.85 -25.65,26.11 -65.29,25.06 -96.04,-4.79 -26.61,-25.84 -51.18,-53.76 -76.65,-80.77 -3.86,1.96 -7.71,3.92 -11.56,5.88 0,17.96 1.64,36.11 -0.33,53.84 -4.5,40.42 -31.72,64.64 -68.8,61.67 -39.32,-3.17 -58.77,-26.89 -60.26,-64.96 -1.28,-32.88 -5.64,-66.9 0.62,-98.57 19.21,-97.08 -46.95,-142.64 -116.04,-202.07 0,87.39 0.15,164.74 -0.1,242.09 -0.07,20.33 1.59,41.31 -2.81,60.82 -7.72,34.36 -30.13,55.24 -67.35,52.25 -36.46,-2.94 -57.56,-24.75 -58.96,-61.03 -1.8,-46.99 -0.58,-94.09 -0.66,-145.85l0 0zm-2168.82 -18.28c550.72,157.12 1077.89,100.17 1582.22,-171.93 36.6,-19.75 44.92,-41.1 38.46,-81.35 -50.79,-316.94 -99.04,-634.29 -148.2,-951.5 -11.87,-76.61 -24.22,-153.13 -37.17,-234.81 -712.66,358.63 -1418.88,714.01 -2130.07,1071.9 210.58,169.92 437.88,288.85 694.76,367.69l0 0zm2572.36 -1522.44c52.08,-264.6 52.88,-529.21 1.03,-794.01 -7.27,-37.14 -15.92,-60.26 -64.18,-67.5 -322.05,-48.37 -643.26,-102.26 -964.8,-154.08 -74.99,-12.08 -150.17,-23.05 -229.95,-35.26 123.83,782.62 246.31,1556.63 369.95,2338.04 25.31,-16.47 44.98,-28.31 63.63,-41.57 432.27,-307.53 707.82,-719.28 824.32,-1245.63l0 0zm-2739.5 818.4c180.17,-89.49 360.34,-178.98 539.91,-268.17 -560.4,-558.56 -1118.26,-1114.6 -1673.71,-1668.23 -284.68,679.36 -143.99,1631.08 553.43,2225.46 190.89,-94.84 382.64,-190.11 580.37,-289.06l0 0zm-243.07 -1150.02c33.6,34.2 34.42,-7.32 41.28,-20.47 349.63,-669.94 698.43,-1340.31 1047.17,-2010.72 6.03,-11.62 10.35,-24.13 17.39,-40.76 -144.18,-10.86 -281.64,-3.25 -417.57,20.3 -707.89,122.6 -1219.37,507.6 -1535.53,1152.85 -14.1,28.78 -10.63,45.3 12.09,67.81 277.35,274.68 553.51,550.57 835.18,831l0 0zm688.38 -954.8c752.54,121.9 1505.08,243.8 2266.73,367.18 -19.67,-60.54 -32.79,-110.56 -51.86,-158.2 -304.81,-761.09 -863.46,-1199.4 -1674.83,-1317.27 -39.95,-5.81 -57.03,4.64 -74.72,39.34 -120.05,235.49 -242.55,469.74 -364.27,704.38 -59.69,115.05 -119.38,230.1 -181.63,350.06 27.35,4.73 50.03,8.66 80.58,14.5l0 0zm148.13 1734.57c-1.84,10.65 -3.69,21.3 -5.52,31.95 2.28,0.68 4.57,1.36 6.86,2.04 251.28,-378.94 502.56,-757.88 759.71,-1145.65 -127.64,0 -243.67,0 -365.1,0 72.47,-148.25 141.93,-290.31 213.06,-435.83 -161.96,-27.2 -314.61,-52.93 -467.3,-78.37 -28.18,-4.69 -50.9,-7.12 -69.28,27.45 -119.77,225.37 -242.71,449.06 -364.44,673.4 -6.37,11.73 -11.18,24.3 -19.76,43.18 165.75,0 324.56,0 489.12,0 -59.49,295.45 -117.8,585.01 -177.35,881.84z"/>
   </g>
   <path class="fil43" d="M3438.67 7679.18c-74.45,-38.95 -145.67,-81.07 -218.54,-120.07 -24.72,-13.23 -30.27,-29.67 -30.2,-55.5 0.78,-300.03 0.53,-600.06 0.72,-904.6 129.4,2.87 130.43,3.2 163.88,122.14 61.68,219.38 151.23,426.72 269.95,621.12 17.94,29.37 19.94,49.76 -1.62,78.73 -62.46,83.97 -121.33,170.63 -184.18,258.18z"/>
   <path class="fil43" d="M3194.68 5485.86c-4.04,-305.04 -3.79,-609.96 -4.9,-914.88 -0.1,-27.17 8.25,-42.07 32.06,-54.96 69.98,-37.9 138.53,-78.46 210.21,-119.91 67.77,91.74 133.64,184.93 197.22,279.67 7.3,10.87 8.13,34.08 1.41,45.18 -135.35,223.87 -234.9,462.35 -299.27,715.87 -3.18,12.48 -18.86,27.27 -31.54,30.79 -32.91,9.15 -67.4,12.59 -105.18,18.24z"/>
   <path class="fil44" d="M8206.89 4395.29c71.02,37.97 138.99,79.66 209.21,117.12 29.32,15.65 37.73,34.55 37.62,66.38 -1.11,298.82 -0.66,597.65 -0.6,900.77 -1.48,4.28 -3.05,4.26 -4.61,4.27 -97.15,0.58 -141.75,-43.22 -165.46,-143.12 -51.89,-218.57 -148.23,-421.45 -266.5,-612.87 -15.34,-24.84 -16.46,-42 1.14,-66.13 63.59,-87.23 124.89,-176.14 189.2,-266.41z"/>
   <path class="fil44" d="M8445.19 6590.58c5.41,12.32 7.72,24.68 7.72,37.04 0.21,291.25 -0.4,582.5 0.98,873.73 0.15,31.51 -10.87,47.75 -37.2,61.99 -67.37,36.42 -133.33,75.46 -203.07,115.08 -69.54,-93.17 -136.48,-187.54 -201.19,-283.42 -6.28,-9.31 -3.65,-30.8 2.96,-41.76 134.22,-222.69 233.53,-459.65 297.49,-711.78 3.7,-14.57 24.54,-29.82 40.6,-35.13 27.87,-9.21 58.22,-10.89 91.73,-15.76z"/>
   <path class="fil45" d="M5282.34 8727.57c-9.5,0.2 -20.17,-2.61 -29.41,-7.89 -278.19,-158.91 -556.26,-318.05 -837.47,-478.52 30.46,-39.42 61.87,-43.28 109.4,-14.65 212.63,128.03 441.18,219.45 682.6,277.42 29.49,7.08 40.55,19.33 44.34,49.02 7.3,57.17 19.73,113.69 30.54,174.63z"/>
   <path class="fil45" d="M4411.7 3842.59c285.42,-167.25 572.63,-331.67 863.14,-497.36 -8.5,64.77 -19.15,131.05 -33.2,196.6 -2.42,11.24 -17.92,25.14 -29.77,28.07 -255.49,63.01 -495.82,162.38 -720.89,298.44 -36.7,22.18 -53.54,-9.21 -79.28,-25.75z"/>
   <path class="fil46" d="M6361.31 3344.68c288.19,160.29 576.26,324.37 866.55,491.15 -30.29,39.43 -60.05,42.33 -105.97,14.76 -213.22,-127.95 -441.76,-220.53 -684.17,-277.61 -24.87,-5.85 -39.82,-15.02 -43.69,-44.75 -7.83,-60.34 -21.54,-119.9 -32.72,-183.56z"/>
   <path class="fil47" d="M7234.47 8235.67c-286.05,166.4 -574.14,330.53 -865.84,495.44 7.75,-62.15 16.81,-125.66 32.05,-187.64 3.87,-15.72 25.37,-34.23 42.12,-38.58 249.44,-64.89 486.34,-159.77 706.17,-294.73 41.87,-25.7 58.17,7.08 85.51,25.51z"/>
   <path class="fil13" d="M3642.44 8920.75c-1.79,0.75 -5.75,-0.64 -8.24,-4.08 3,-0.73 4.53,0.61 8.24,4.08z"/>
   <path class="fil48" d="M5507.53 9637.1c10.47,-27.2 22.01,-50.87 38.38,-84.39 11.7,34.21 20.18,59.01 31.36,91.72 -27.21,-1.51 -47.93,-2.66 -69.74,-7.33z"/>
   <path class="fil49" d="M7173.75 9410.18c-4.68,-37.88 -10.32,-72.73 -8.68,-107.24 0.54,-11.51 18.64,-30.08 30.48,-31.59 28.65,-3.67 62.48,-7.73 86.7,3.96 39.27,18.94 70.07,98.16 52.04,134.79 -12.61,25.62 -41.23,51.88 -68.11,60.01 -43.68,13.22 -70.85,-20.5 -92.44,-59.92z"/>
   <path class="fil50" d="M5054.25 9538.47c-3.83,-27.04 -3.83,-53.23 -3.83,-81.29 37.54,-3.01 70.6,0.65 72.72,36.6 2.31,39.14 -30.04,48.97 -68.9,44.7z"/>
   <path class="fil51" d="M3453.45 8849.32c-20.77,-5.58 -40.71,-14.47 -71.29,-28.11 36.07,-19.83 59.87,-32.9 95.03,-52.23 -9.91,33.36 -16.4,55.19 -23.74,80.33z"/>
   <path class="fil52" d="M7704.91 9102.69c23.75,6.2 47.57,16.23 83.55,31.36 -31.72,18.42 -49.61,28.8 -73.85,42.88 -3.64,-26.64 -6.62,-48.53 -9.7,-74.24z"/>
   <path class="fil53" d="M5231.8 7959.35c-253.18,-78.08 -480.48,-197.01 -691.06,-366.93 711.19,-357.89 1417.42,-713.27 2130.07,-1071.9 12.95,81.68 25.31,158.21 37.17,234.81 49.16,317.2 97.41,634.55 148.2,951.5 6.45,40.25 -1.87,61.6 -38.46,81.35 -504.33,272.1 -1031.51,329.05 -1585.92,171.17z"/>
   <path class="fil54" d="M7807.04 6441.59c-115.68,522.43 -391.23,934.18 -823.5,1241.71 -18.65,13.26 -38.32,25.1 -63.63,41.57 -123.64,-781.41 -246.12,-1555.42 -369.95,-2338.04 79.78,12.21 154.96,23.18 229.95,35.26 321.54,51.82 642.75,105.71 964.8,154.08 48.26,7.24 56.91,30.35 64.18,67.5 51.85,264.8 51.05,529.41 -1.85,797.92z"/>
   <path class="fil54" d="M5065.37 7257.91c-194.74,97.11 -386.5,192.37 -577.38,287.22 -697.43,-594.37 -838.11,-1546.1 -553.43,-2225.46 555.45,553.63 1113.31,1109.67 1673.71,1668.23 -179.57,89.19 -359.74,178.68 -542.9,270.01z"/>
   <path class="fil53" d="M4822.69 6103.61c-279.07,-278 -555.23,-553.88 -832.58,-828.57 -22.71,-22.5 -26.19,-39.02 -12.09,-67.81 316.16,-645.25 827.64,-1030.25 1535.53,-1152.85 135.93,-23.54 273.39,-31.15 417.57,-20.3 -7.04,16.63 -11.36,29.14 -17.39,40.76 -348.74,670.41 -697.54,1340.78 -1047.17,2010.72 -6.86,13.15 -7.68,54.67 -43.88,18.04z"/>
   <path class="fil54" d="M5509.73 5150.29c-26.62,-4.88 -49.3,-8.81 -76.65,-13.54 62.24,-119.96 121.94,-235.01 181.63,-350.06 121.72,-234.64 244.22,-468.89 364.27,-704.38 17.69,-34.7 34.77,-45.15 74.72,-39.34 811.37,117.87 1370.02,556.18 1674.83,1317.27 19.07,47.63 32.19,97.66 51.86,158.2 -761.65,-123.38 -1514.19,-245.28 -2270.66,-368.14z"/>
   <path class="fil55" d="M5662.42 6882.19c58.93,-293.2 117.24,-582.77 176.72,-878.22 -164.56,0 -323.37,0 -489.12,0 8.58,-18.88 13.38,-31.45 19.76,-43.18 121.73,-224.34 244.67,-448.02 364.44,-673.4 18.38,-34.57 41.1,-32.14 69.28,-27.45 152.68,25.45 305.34,51.18 467.3,78.37 -71.13,145.51 -140.59,287.58 -213.06,435.83 121.43,0 237.46,0 365.1,0 -257.15,387.77 -508.43,766.71 -759.71,1145.65 -2.29,-0.68 -4.58,-1.36 -6.86,-2.04 1.84,-10.65 3.69,-21.3 6.15,-35.58z"/>
  </g>
 </g>
</svg>
